<svg xmlns="http://www.w3.org/2000/svg" xmlns:xlink="http://www.w3.org/1999/xlink" width="2275" zoomAndPan="magnify" viewBox="0 0 1706.25 1706.249932" height="2275" preserveAspectRatio="xMidYMid meet" version="1.0"><defs><clipPath id="404ba96a64"><path d="M 0 0 L 1704.75 0 L 1704.75 1704.75 L 0 1704.75 Z M 0 0 " clip-rule="nonzero"/></clipPath><clipPath id="a681f4f493"><path d="M 357 874 L 1379 874 L 1379 1395.605469 L 357 1395.605469 Z M 357 874 " clip-rule="nonzero"/></clipPath><clipPath id="e578be8cb1"><path d="M 501 309.332031 L 1296 309.332031 L 1296 1170 L 501 1170 Z M 501 309.332031 " clip-rule="nonzero"/></clipPath></defs><g clip-path="url(#404ba96a64)"><path fill="#c6c5b9" d="M 852.375 1704.75 C 381.464844 1704.75 0 1320.65625 0 852.375 C 0 384.09375 381.464844 0 852.375 0 C 1323.285156 0 1704.75 381.464844 1704.75 852.375 C 1704.75 1323.285156 1320.65625 1704.75 852.375 1704.75 Z M 852.375 52.617188 C 410.402344 52.617188 52.617188 410.402344 52.617188 852.375 C 52.617188 1294.347656 410.402344 1652.132812 852.375 1652.132812 C 1294.347656 1652.132812 1652.136719 1294.347656 1652.136719 852.375 C 1652.132812 410.402344 1291.714844 52.617188 852.375 52.617188 Z M 852.375 52.617188 " fill-opacity="1" fill-rule="nonzero"/></g><g clip-path="url(#a681f4f493)"><path fill="#c6c5b9" d="M 506.636719 1066.433594 C 517.5 1066.433594 528.070312 1070.414062 538.34375 1077.328125 C 583.390625 810.5 1208.835938 805.824219 1254.707031 1067.78125 C 1309.566406 1081.34375 1356.125 1211.894531 1378.121094 1395.605469 L 357.335938 1395.605469 C 383.449219 1201.425781 440.382812 1066.433594 506.636719 1066.433594 Z M 506.636719 1066.433594 " fill-opacity="1" fill-rule="nonzero"/></g><g clip-path="url(#e578be8cb1)"><path fill="#fdfdff" d="M 506.667969 990.328125 C 635.847656 623.132812 489.050781 309.332031 851.265625 309.332031 C 1213.480469 309.332031 1138.929688 578.367188 1285.691406 938.878906 C 1322.539062 1029.398438 1238.175781 1133.351562 1238.175781 1133.351562 C 1238.175781 1133.351562 1152.167969 976.796875 1081.765625 940.917969 C 1062.304688 1048.789062 1024.140625 1169.300781 1024.140625 1169.300781 C 1024.140625 1169.300781 939.152344 1071.699219 840.167969 985.390625 C 811.222656 1018.601562 772.171875 1057.25 719.550781 1099.351562 C 708.058594 1064.851562 688.5 1022.355469 667.917969 981.636719 C 619.582031 1055.304688 563.140625 1144.609375 563.140625 1144.609375 C 563.140625 1144.609375 480.589844 1064.457031 506.667969 990.328125 Z M 506.667969 990.328125 " fill-opacity="1" fill-rule="nonzero"/></g><path fill="#ff9e00" d="M 653.660156 375.167969 C 510.09375 475.863281 471.171875 446.269531 396.421875 492.417969 C 326.449219 535.605469 330.566406 654.964844 392.308594 757.800781 C 411.375 670.207031 375.84375 654.140625 620.765625 654.140625 C 785.410156 654.140625 881.824219 663.65625 851.265625 621.226562 C 820.742188 578.792969 521.089844 636.335938 653.660156 375.167969 Z M 653.660156 375.167969 " fill-opacity="1" fill-rule="nonzero"/><path fill="#c6c5b9" d="M 819.226562 458.019531 C 819.226562 485.011719 797.394531 506.835938 770.394531 506.835938 C 743.390625 506.835938 721.527344 485.011719 721.527344 458.019531 C 721.527344 452.851562 722.546875 447.980469 724.03125 443.339844 L 816.757812 443.339844 C 818.207031 447.980469 819.226562 452.851562 819.226562 458.019531 Z M 819.226562 458.019531 " fill-opacity="1" fill-rule="nonzero"/></svg>