<svg xmlns="http://www.w3.org/2000/svg" xmlns:xlink="http://www.w3.org/1999/xlink" width="3216" zoomAndPan="magnify" viewBox="0 0 2412 2412.000006" height="3216" preserveAspectRatio="xMidYMid meet" version="1.0"><defs><clipPath id="9832e33bbb"><path d="M 1 0.152344 L 2411.25 0.152344 L 2411.25 2410.402344 L 1 2410.402344 Z M 1 0.152344 " clip-rule="nonzero"/></clipPath><clipPath id="2e2df1c38a"><path d="M 361.523438 355.714844 L 2018.625 355.714844 L 2018.625 1996.273438 L 361.523438 1996.273438 Z M 361.523438 355.714844 " clip-rule="nonzero"/></clipPath><clipPath id="39081e278d"><path d="M 553 793 L 2011 793 L 2011 1996.273438 L 553 1996.273438 Z M 553 793 " clip-rule="nonzero"/></clipPath></defs><g clip-path="url(#9832e33bbb)"><path fill="#c6c5b9" d="M 1206.125 2410.402344 C 540.332031 2410.402344 1 1867.355469 1 1205.277344 C 1 543.203125 540.332031 0.152344 1206.125 0.152344 C 1871.921875 0.152344 2411.25 539.484375 2411.25 1205.277344 C 2411.25 1871.074219 1868.199219 2410.402344 1206.125 2410.402344 Z M 1206.125 74.542969 C 581.246094 74.542969 75.390625 580.398438 75.390625 1205.277344 C 75.390625 1830.160156 581.246094 2336.015625 1206.125 2336.015625 C 1831.003906 2336.015625 2336.859375 1830.160156 2336.859375 1205.277344 C 2336.859375 580.398438 1827.285156 74.542969 1206.125 74.542969 Z M 1206.125 74.542969 " fill-opacity="1" fill-rule="nonzero"/></g><g clip-path="url(#2e2df1c38a)"><path fill="#8a7968" d="M 1749.035156 1835.546875 C 1744.394531 1834.953125 1739.097656 1833.59375 1737.085938 1829.371094 C 1735.507812 1826.132812 1736.453125 1822.261719 1737.574219 1818.808594 C 1749.25 1782.792969 1777.234375 1752.390625 1792.257812 1718.46875 C 1797.703125 1759.539062 1803.140625 1800.613281 1808.601562 1841.671875 C 1789.464844 1835.964844 1768.871094 1838.164062 1749.035156 1835.546875 Z M 1997.074219 682.855469 C 1991.640625 665.347656 1986.207031 647.851562 1980.769531 630.34375 C 1997.289062 579.128906 2009.804688 526.386719 2002.765625 473.527344 C 2001.226562 461.910156 1998.570312 450.054688 1991.679688 440.652344 C 1984.777344 431.238281 1972.652344 424.816406 1961.3125 427.609375 C 1954.378906 429.324219 1948.703125 434.097656 1943.335938 438.765625 C 1904.671875 472.269531 1868.046875 508.070312 1833.628906 545.90625 C 1807.011719 529.867188 1777.867188 517.96875 1747.644531 510.765625 C 1722.683594 504.804688 1697.035156 502.039062 1671.414062 502.78125 C 1665.558594 492.839844 1658.789062 483.359375 1651.75 474.292969 C 1632.480469 449.40625 1610.511719 426.179688 1596.054688 398.21875 C 1590.609375 387.722656 1586.15625 376.421875 1578.242188 367.640625 C 1570.296875 358.820312 1557.648438 352.964844 1546.523438 357.050781 C 1538.714844 359.898438 1533.28125 366.980469 1529.019531 374.128906 C 1507.132812 410.980469 1505.703125 456.125 1506.402344 499.003906 C 1507.066406 539.324219 1509.046875 579.546875 1512.390625 619.714844 C 1495.980469 642.6875 1480.605469 666.332031 1468.199219 691.609375 C 1451.019531 726.636719 1439.609375 765.378906 1440.554688 804.210938 C 1440.660156 809.160156 1440.972656 814.125 1441.496094 819.0625 C 1443.65625 839.566406 1449.898438 859.933594 1459.863281 878.0625 C 1454.714844 882.703125 1449.089844 887.058594 1443.277344 891.347656 C 1418.492188 909.300781 1389.324219 925.015625 1371.46875 949.214844 C 1357.953125 967.515625 1351.535156 990.082031 1339.925781 1009.667969 C 1316.539062 1049.175781 1275.058594 1072.78125 1234.023438 1094.429688 C 1228.628906 1097.292969 1223.222656 1100.109375 1217.855469 1102.929688 C 1134.582031 1146.835938 1053.921875 1198.777344 991.808594 1269.511719 C 945.285156 1322.511719 911.746094 1385.691406 891.8125 1453.121094 C 858.800781 1564.199219 862.5625 1686.808594 905.125 1794.300781 C 876.332031 1792.277344 847.339844 1790.496094 818.289062 1789.347656 C 774.71875 1787.609375 731.148438 1787.21875 688.074219 1789.566406 C 673.78125 1790.292969 659.554688 1791.371094 645.445312 1792.761719 C 630.734375 1794.191406 616.089844 1796.011719 601.550781 1798.238281 C 543.132812 1807.277344 486.425781 1823.058594 432.957031 1849.078125 C 429.300781 1850.816406 425.671875 1852.625 422.046875 1854.511719 C 402.734375 1864.480469 383.464844 1876.335938 371.542969 1894.507812 C 359.621094 1912.636719 357.074219 1938.574219 370.867188 1955.339844 C 379.621094 1965.96875 391.863281 1970.5 405.417969 1971.582031 C 422.746094 1973.011719 442.234375 1968.761719 459.347656 1964.445312 C 497.375 1954.8125 536.160156 1948.257812 575.242188 1944.804688 C 595.632812 1942.957031 616.089844 1941.984375 636.546875 1941.878906 C 651.675781 1941.742188 666.765625 1942.121094 681.871094 1942.929688 C 704.351562 1944.144531 726.722656 1946.382812 749.003906 1949.660156 C 799.546875 1957.078125 849.980469 1969.773438 900.972656 1966.804688 C 928.65625 1965.199219 957.058594 1957.917969 981.074219 1944.359375 C 998.539062 1953.140625 1015.515625 1963.5 1033.925781 1969.949219 C 1052.007812 1976.289062 1071.183594 1978.769531 1090.214844 1981.210938 C 1108.753906 1983.585938 1127.339844 1985.945312 1145.882812 1988.320312 C 1177.464844 1992.367188 1209.113281 1996.414062 1240.925781 1996.414062 C 1268.464844 1996.414062 1295.976562 1993.335938 1322.8125 1987.347656 C 1341.746094 1983.085938 1361.367188 1976.746094 1374.300781 1962.246094 C 1378.15625 1957.847656 1381.164062 1952.519531 1383.039062 1946.867188 C 1431.707031 1954.367188 1482.84375 1946.449219 1526.726562 1924.140625 C 1546.238281 1953.761719 1570.324219 1985.917969 1605.496094 1989.683594 C 1614.53125 1990.652344 1623.96875 1989.507812 1631.886719 1985.109375 C 1649.902344 1975.179688 1655.621094 1951.75 1654.542969 1931.207031 C 1654.5 1930.832031 1654.5 1930.480469 1654.476562 1930.101562 C 1661.273438 1931.355469 1668.136719 1930.722656 1673.960938 1927.066406 C 1680.058594 1923.222656 1684.128906 1916.640625 1690.546875 1913.429688 C 1696.050781 1910.71875 1702.511719 1910.8125 1708.644531 1911.03125 C 1723.035156 1911.449219 1737.464844 1911.894531 1751.867188 1912.351562 C 1769.289062 1912.878906 1787.238281 1913.324219 1803.597656 1907.292969 C 1806.6875 1906.148438 1809.761719 1904.675781 1812.660156 1903.003906 C 1823.042969 1928.105469 1836.21875 1952.277344 1858.792969 1966.496094 C 1887.140625 1984.3125 1934.097656 1974.589844 1940.367188 1941.703125 C 1942.902344 1928.324219 1938.34375 1914.753906 1934.71875 1901.613281 C 1916.660156 1836.035156 1922.136719 1766.582031 1927.746094 1698.800781 C 1930.292969 1667.710938 1932.871094 1636.644531 1935.445312 1605.582031 C 1936.605469 1591.808594 1937.710938 1578.0625 1938.871094 1564.332031 C 1943.011719 1514.304688 1947.207031 1464.097656 1958.007812 1415.109375 C 1967.175781 1373.617188 1981.148438 1332.652344 1982.023438 1290.164062 C 1982.644531 1260.691406 1976.902344 1231.234375 1979.542969 1201.882812 C 1982.050781 1173.71875 1992.234375 1146.617188 1994.851562 1118.453125 C 1997.640625 1088.1875 1991.613281 1058.027344 1985.960938 1027.945312 C 1980.445312 998.515625 1975.296875 969.09375 1979.058594 939.625 C 1983.523438 904.632812 2000.257812 872.367188 2010.359375 838.621094 C 2013.324219 828.71875 2015.726562 818.683594 2017.046875 808.40625 C 2022.589844 766.039062 2009.765625 723.644531 1997.074219 682.855469 " fill-opacity="1" fill-rule="nonzero"/></g><g clip-path="url(#39081e278d)"><path fill="#c6c5b9" d="M 601.550781 1798.238281 C 599.675781 1801.558594 597.4375 1804.726562 595.28125 1807.652344 C 582.238281 1825.324219 571.019531 1844.300781 561.824219 1864.238281 C 556.941406 1874.800781 552.546875 1886.128906 553.554688 1897.703125 C 554.984375 1914.335938 567.015625 1927.835938 574.335938 1942.824219 C 574.648438 1943.484375 574.957031 1944.105469 575.242188 1944.804688 C 595.632812 1942.957031 616.089844 1941.984375 636.546875 1941.878906 C 631.179688 1925.949219 625.648438 1909.976562 625.367188 1893.386719 C 624.800781 1859.070312 646.726562 1826.308594 645.445312 1792.761719 C 630.734375 1794.191406 616.089844 1796.011719 601.550781 1798.238281 Z M 1808.601562 1841.671875 C 1803.140625 1800.613281 1797.703125 1759.539062 1792.257812 1718.46875 C 1777.234375 1752.390625 1749.25 1782.792969 1737.574219 1818.808594 C 1736.453125 1822.261719 1735.507812 1826.132812 1737.085938 1829.371094 C 1739.097656 1833.59375 1744.394531 1834.953125 1749.035156 1835.546875 C 1768.871094 1838.164062 1789.464844 1835.964844 1808.601562 1841.671875 Z M 2010.359375 838.621094 C 2000.257812 872.367188 1983.523438 904.632812 1979.058594 939.636719 C 1975.296875 969.09375 1980.445312 998.515625 1985.960938 1027.945312 C 1980.175781 1042.097656 1971.386719 1055.515625 1961.390625 1066.671875 C 1935.59375 1095.375 1901.746094 1117.199219 1881.53125 1150.070312 C 1863.125 1180.015625 1857.929688 1217.785156 1867.628906 1251.601562 C 1875.394531 1278.753906 1891.957031 1302.464844 1902.730469 1328.578125 C 1917.078125 1363.378906 1920.882812 1402.457031 1913.492188 1439.375 C 1906.65625 1473.648438 1890.417969 1506.535156 1891.535156 1541.457031 C 1892.398438 1569 1911.011719 1598.5 1935.445312 1605.582031 C 1932.871094 1636.644531 1930.292969 1667.710938 1927.746094 1698.800781 C 1922.136719 1766.582031 1916.660156 1836.035156 1934.71875 1901.613281 C 1938.34375 1914.753906 1942.902344 1928.324219 1940.367188 1941.703125 C 1934.097656 1974.589844 1887.140625 1984.3125 1858.792969 1966.496094 C 1836.21875 1952.277344 1823.042969 1928.105469 1812.660156 1903.003906 C 1809.761719 1904.675781 1806.6875 1906.148438 1803.597656 1907.292969 C 1787.238281 1913.324219 1769.289062 1912.878906 1751.867188 1912.351562 C 1737.464844 1911.894531 1723.035156 1911.449219 1708.644531 1911.03125 C 1702.511719 1910.8125 1696.050781 1910.71875 1690.546875 1913.429688 C 1684.128906 1916.640625 1680.058594 1923.222656 1673.960938 1927.066406 C 1668.136719 1930.722656 1661.273438 1931.355469 1654.476562 1930.101562 C 1654.5 1930.480469 1654.5 1930.832031 1654.542969 1931.207031 C 1655.621094 1951.75 1649.902344 1975.179688 1631.886719 1985.109375 C 1623.96875 1989.507812 1614.53125 1990.652344 1605.496094 1989.683594 C 1570.324219 1985.917969 1546.238281 1953.761719 1526.726562 1924.140625 C 1482.84375 1946.449219 1431.707031 1954.367188 1383.039062 1946.867188 C 1381.164062 1952.519531 1378.15625 1957.847656 1374.300781 1962.246094 C 1361.367188 1976.746094 1341.746094 1983.085938 1322.8125 1987.347656 C 1295.976562 1993.335938 1268.464844 1996.414062 1240.925781 1996.414062 C 1209.113281 1996.414062 1177.464844 1992.367188 1145.882812 1988.320312 C 1127.339844 1985.945312 1108.753906 1983.585938 1090.214844 1981.210938 C 1071.183594 1978.769531 1052.007812 1976.289062 1033.925781 1969.949219 C 1015.515625 1963.5 998.539062 1953.140625 981.074219 1944.359375 C 957.058594 1957.917969 928.65625 1965.199219 900.972656 1966.804688 C 849.980469 1969.773438 799.546875 1957.078125 749.003906 1949.660156 C 726.722656 1946.382812 704.351562 1944.144531 681.871094 1942.929688 C 684.472656 1932.152344 684.890625 1920.863281 682.949219 1909.976562 C 690.367188 1912.566406 697.621094 1916.464844 705.011719 1919.285156 C 717.796875 1924.140625 735.191406 1924.207031 741.894531 1912.285156 C 745.375 1906.011719 744.820312 1898.054688 748.585938 1891.917969 C 757.957031 1876.621094 782.460938 1885.46875 798.710938 1877.726562 C 813.558594 1870.660156 817.738281 1851.695312 818.816406 1835.265625 C 819.789062 1819.953125 819.625 1804.617188 818.289062 1789.347656 C 847.339844 1790.496094 876.332031 1792.277344 905.125 1794.300781 C 862.5625 1686.808594 858.800781 1564.199219 891.8125 1453.121094 C 912.296875 1474.972656 938.097656 1492.261719 964.488281 1507.007812 C 998.335938 1525.945312 1035.90625 1541.957031 1074.554688 1538.949219 C 1113.246094 1535.953125 1152.289062 1508.542969 1156.925781 1470.0625 C 1159.476562 1449.003906 1151.84375 1428.21875 1148.28125 1407.300781 C 1144.722656 1386.390625 1146.71875 1361.800781 1163.34375 1348.625 C 1175.535156 1338.964844 1191.125 1338.441406 1207.121094 1339.910156 C 1216.355469 1340.746094 1225.730469 1342.285156 1234.65625 1343.078125 C 1289.90625 1348.097656 1346.828125 1318.640625 1374.675781 1270.671875 C 1386.113281 1251.046875 1402.429688 1224.40625 1423.589844 1232.59375 C 1436.75 1237.679688 1441.363281 1254.21875 1452.542969 1262.824219 C 1469.035156 1275.476562 1494.859375 1265.898438 1506.027344 1248.351562 C 1517.164062 1230.816406 1517.40625 1208.640625 1516.058594 1187.894531 C 1512.714844 1135.746094 1501.628906 1084.113281 1483.328125 1035.164062 C 1465.757812 988.261719 1441.148438 940.257812 1443.277344 891.347656 C 1449.089844 887.058594 1454.714844 882.703125 1459.863281 878.0625 C 1449.898438 859.933594 1443.65625 839.566406 1441.496094 819.0625 C 1440.972656 814.125 1440.660156 809.160156 1440.554688 804.210938 C 1455.0625 799.085938 1468.902344 795.714844 1479.136719 805.789062 C 1490.4375 816.945312 1485.972656 835.867188 1490.476562 851.109375 C 1497.382812 874.609375 1526.023438 885.898438 1550.179688 881.851562 C 1574.34375 877.820312 1594.867188 862.550781 1614.382812 847.726562 C 1634.355469 832.523438 1655.511719 815.472656 1667.058594 793.960938 C 1711.007812 800.972656 1752.527344 823.5 1781.941406 857.003906 C 1801.535156 879.273438 1821.359375 908.84375 1850.960938 907.628906 C 1882.785156 906.332031 1900.625 868.578125 1899.65625 836.707031 C 1899.480469 831.835938 1899.101562 826.777344 1900.597656 822.097656 C 1903.796875 812.277344 1915.027344 806.828125 1925.414062 807.042969 C 1935.769531 807.246094 1945.453125 811.859375 1954.769531 816.457031 C 1972.613281 825.308594 1991.085938 834.722656 2010.359375 838.621094 " fill-opacity="1" fill-rule="nonzero"/></g><path fill="#fcf8f5" d="M 432.957031 1849.078125 C 434.101562 1872.222656 439.859375 1897.21875 433.023438 1919.082031 C 428.179688 1934.660156 417.230469 1947.488281 409.640625 1961.894531 C 408.035156 1964.957031 406.5625 1968.207031 405.417969 1971.582031 C 422.746094 1973.011719 442.234375 1968.761719 459.347656 1964.445312 C 497.375 1954.8125 536.160156 1948.257812 575.242188 1944.804688 C 574.957031 1944.105469 574.648438 1943.484375 574.335938 1942.824219 C 567.015625 1927.835938 554.984375 1914.335938 553.554688 1897.703125 C 552.546875 1886.128906 556.941406 1874.800781 561.824219 1864.238281 C 571.019531 1844.300781 582.238281 1825.324219 595.28125 1807.652344 C 597.4375 1804.726562 599.675781 1801.558594 601.550781 1798.238281 C 543.132812 1807.277344 486.425781 1823.058594 432.957031 1849.078125 Z M 645.445312 1792.761719 C 646.726562 1826.308594 624.800781 1859.070312 625.367188 1893.386719 C 625.648438 1909.976562 631.179688 1925.949219 636.546875 1941.878906 C 651.675781 1941.742188 666.765625 1942.121094 681.871094 1942.929688 C 684.472656 1932.152344 684.890625 1920.863281 682.949219 1909.976562 C 682.25 1906.011719 681.238281 1902.058594 679.875 1898.230469 C 677.894531 1892.617188 675.277344 1887.113281 674.832031 1881.179688 C 673.253906 1860.71875 696.894531 1847.363281 702.921875 1827.699219 C 707.238281 1813.65625 700.347656 1797.335938 688.074219 1789.566406 C 673.78125 1790.292969 659.554688 1791.371094 645.445312 1792.761719 Z M 1234.023438 1094.429688 C 1228.628906 1097.292969 1223.222656 1100.109375 1217.855469 1102.929688 C 1134.582031 1146.835938 1053.921875 1198.777344 991.808594 1269.511719 C 945.285156 1322.511719 911.746094 1385.691406 891.8125 1453.121094 C 912.296875 1474.972656 938.097656 1492.261719 964.488281 1507.007812 C 998.335938 1525.945312 1035.90625 1541.957031 1074.554688 1538.949219 C 1113.246094 1535.953125 1152.289062 1508.542969 1156.925781 1470.0625 C 1159.476562 1449.003906 1151.84375 1428.21875 1148.28125 1407.300781 C 1144.722656 1386.390625 1146.71875 1361.800781 1163.34375 1348.625 C 1175.535156 1338.964844 1191.125 1338.441406 1207.121094 1339.910156 C 1205.515625 1327.851562 1210.542969 1313.417969 1218.070312 1303.101562 C 1229.949219 1286.804688 1246.929688 1272.277344 1249.234375 1252.222656 C 1250.933594 1237.300781 1243.933594 1222.9375 1238.703125 1208.816406 C 1225.3125 1172.421875 1223.855469 1131.835938 1234.023438 1094.429688 Z M 1671.414062 502.78125 C 1665.558594 492.839844 1658.789062 483.359375 1651.75 474.292969 C 1632.480469 449.40625 1610.511719 426.179688 1596.054688 398.21875 C 1590.609375 387.722656 1586.15625 376.421875 1578.242188 367.640625 C 1570.296875 358.820312 1557.648438 352.964844 1546.523438 357.050781 C 1538.714844 359.898438 1533.28125 366.980469 1529.019531 374.128906 C 1507.132812 410.980469 1505.703125 456.125 1506.402344 499.003906 C 1507.066406 539.324219 1509.046875 579.546875 1512.390625 619.714844 C 1495.980469 642.6875 1480.605469 666.332031 1468.199219 691.609375 C 1451.019531 726.636719 1439.609375 765.378906 1440.554688 804.210938 C 1455.0625 799.085938 1468.902344 795.714844 1479.136719 805.789062 C 1490.4375 816.945312 1485.972656 835.867188 1490.476562 851.109375 C 1497.382812 874.609375 1526.023438 885.898438 1550.179688 881.851562 C 1574.34375 877.820312 1594.867188 862.550781 1614.382812 847.726562 C 1634.355469 832.523438 1655.511719 815.472656 1667.058594 793.960938 C 1670.996094 786.675781 1673.8125 778.90625 1675.109375 770.503906 C 1678.316406 749.972656 1671.695312 729.121094 1672.84375 708.335938 C 1674.972656 669.609375 1703.035156 638.085938 1721.472656 603.917969 C 1736.871094 575.296875 1745.800781 543.222656 1747.644531 510.765625 C 1722.683594 504.804688 1697.035156 502.039062 1671.414062 502.78125 Z M 1985.960938 1027.945312 C 1991.613281 1058.027344 1997.640625 1088.1875 1994.851562 1118.453125 C 1992.234375 1146.617188 1982.050781 1173.71875 1979.542969 1201.882812 C 1976.902344 1231.234375 1982.644531 1260.691406 1982.023438 1290.164062 C 1981.148438 1332.652344 1967.175781 1373.617188 1958.007812 1415.109375 C 1947.207031 1464.097656 1943.011719 1514.304688 1938.871094 1564.332031 C 1937.710938 1578.0625 1936.605469 1591.808594 1935.445312 1605.582031 C 1911.011719 1598.5 1892.398438 1569 1891.535156 1541.457031 C 1890.417969 1506.535156 1906.65625 1473.648438 1913.492188 1439.375 C 1920.882812 1402.457031 1917.078125 1363.378906 1902.730469 1328.578125 C 1891.957031 1302.464844 1875.394531 1278.753906 1867.628906 1251.601562 C 1857.929688 1217.785156 1863.125 1180.015625 1881.53125 1150.070312 C 1901.746094 1117.199219 1935.59375 1095.375 1961.390625 1066.671875 C 1971.386719 1055.515625 1980.175781 1042.097656 1985.960938 1027.945312 " fill-opacity="1" fill-rule="nonzero"/><path fill="#8a7968" d="M 422.046875 1854.511719 C 402.734375 1864.480469 383.464844 1876.335938 371.542969 1894.507812 C 359.621094 1912.636719 357.074219 1938.574219 370.867188 1955.339844 C 379.621094 1965.96875 391.863281 1970.5 405.417969 1971.582031 C 406.5625 1968.207031 408.035156 1964.957031 409.640625 1961.894531 C 417.230469 1947.488281 428.179688 1934.660156 433.023438 1919.082031 C 439.859375 1897.21875 434.101562 1872.222656 432.957031 1849.078125 C 429.300781 1850.816406 425.671875 1852.625 422.046875 1854.511719 Z M 688.074219 1789.566406 C 700.347656 1797.335938 707.238281 1813.65625 702.921875 1827.699219 C 696.894531 1847.363281 673.253906 1860.71875 674.832031 1881.179688 C 675.277344 1887.113281 677.894531 1892.617188 679.875 1898.230469 C 681.238281 1902.058594 682.25 1906.011719 682.949219 1909.976562 C 690.367188 1912.566406 697.621094 1916.464844 705.011719 1919.285156 C 717.796875 1924.140625 735.191406 1924.207031 741.894531 1912.285156 C 745.375 1906.011719 744.820312 1898.054688 748.585938 1891.917969 C 757.957031 1876.621094 782.460938 1885.46875 798.710938 1877.726562 C 813.558594 1870.660156 817.738281 1851.695312 818.816406 1835.265625 C 819.789062 1819.953125 819.625 1804.617188 818.289062 1789.347656 C 774.71875 1787.609375 731.148438 1787.21875 688.074219 1789.566406 Z M 1483.328125 1035.164062 C 1465.757812 988.261719 1441.148438 940.257812 1443.277344 891.347656 C 1418.492188 909.300781 1389.324219 925.015625 1371.46875 949.214844 C 1357.953125 967.515625 1351.535156 990.082031 1339.925781 1009.667969 C 1316.539062 1049.175781 1275.058594 1072.78125 1234.023438 1094.429688 C 1223.855469 1131.835938 1225.3125 1172.421875 1238.703125 1208.816406 C 1243.933594 1222.9375 1250.933594 1237.300781 1249.234375 1252.222656 C 1246.929688 1272.277344 1229.949219 1286.804688 1218.070312 1303.101562 C 1210.542969 1313.417969 1205.515625 1327.851562 1207.121094 1339.910156 C 1216.355469 1340.746094 1225.730469 1342.285156 1234.65625 1343.078125 C 1289.90625 1348.097656 1346.828125 1318.640625 1374.675781 1270.671875 C 1386.113281 1251.046875 1402.429688 1224.40625 1423.589844 1232.59375 C 1436.75 1237.679688 1441.363281 1254.21875 1452.542969 1262.824219 C 1469.035156 1275.476562 1494.859375 1265.898438 1506.027344 1248.351562 C 1517.164062 1230.816406 1517.40625 1208.640625 1516.058594 1187.894531 C 1512.714844 1135.746094 1501.628906 1084.113281 1483.328125 1035.164062 Z M 1997.074219 682.855469 C 2009.765625 723.644531 2022.589844 766.039062 2017.046875 808.40625 C 2015.726562 818.683594 2013.324219 828.71875 2010.359375 838.621094 C 1991.085938 834.722656 1972.613281 825.308594 1954.769531 816.457031 C 1945.453125 811.859375 1935.769531 807.246094 1925.414062 807.042969 C 1915.027344 806.828125 1903.796875 812.277344 1900.597656 822.097656 C 1899.101562 826.777344 1899.480469 831.835938 1899.65625 836.707031 C 1900.625 868.578125 1882.785156 906.332031 1850.960938 907.628906 C 1821.359375 908.84375 1801.535156 879.273438 1781.941406 857.003906 C 1752.527344 823.5 1711.007812 800.972656 1667.058594 793.960938 C 1670.996094 786.675781 1673.8125 778.90625 1675.109375 770.503906 C 1678.316406 749.972656 1671.695312 729.121094 1672.84375 708.335938 C 1674.972656 669.609375 1703.035156 638.085938 1721.472656 603.917969 C 1736.871094 575.296875 1745.800781 543.222656 1747.644531 510.765625 C 1777.867188 517.96875 1807.011719 529.867188 1833.628906 545.90625 C 1868.046875 508.070312 1904.671875 472.269531 1943.335938 438.765625 C 1948.703125 434.097656 1954.378906 429.324219 1961.3125 427.609375 C 1972.652344 424.816406 1984.777344 431.238281 1991.679688 440.652344 C 1998.570312 450.054688 2001.226562 461.910156 2002.753906 473.527344 C 2009.804688 526.386719 1997.289062 579.128906 1980.769531 630.34375 C 1986.207031 647.851562 1991.640625 665.347656 1997.074219 682.855469 " fill-opacity="1" fill-rule="nonzero"/><path fill="#c6c5b9" d="M 1965.222656 601.300781 C 1973.300781 577.980469 1978.679688 553.78125 1981.214844 529.246094 C 1981.957031 522.058594 1982.441406 514.664062 1980.421875 507.757812 C 1978.355469 500.828125 1973.300781 494.378906 1966.300781 492.597656 C 1954.554688 489.671875 1944.089844 500.125 1936.539062 509.582031 C 1923.078125 526.347656 1909.621094 543.046875 1896.164062 559.785156 C 1889.054688 568.605469 1891.914062 581.703125 1902.027344 586.828125 C 1914.433594 593.074219 1926.179688 600.640625 1937.023438 609.355469 C 1946.746094 617.125 1961.148438 613.089844 1965.222656 601.300781 Z M 1597.402344 538.539062 C 1585.589844 545.796875 1574.410156 554.066406 1563.988281 563.15625 C 1552.902344 572.855469 1535.679688 565.8125 1534.46875 551.140625 C 1532.203125 523.109375 1531.878906 494.890625 1533.550781 466.792969 C 1534.222656 456.125 1537.136719 442.988281 1547.535156 440.503906 C 1557.984375 437.996094 1566.5625 448.53125 1572.039062 457.769531 C 1583.191406 476.628906 1593.789062 495.835938 1603.714844 515.367188 C 1607.894531 523.554688 1605.253906 533.699219 1597.402344 538.539062 " fill-opacity="1" fill-rule="nonzero"/><path fill="#fcf8f5" d="M 1868.949219 661.109375 C 1869.003906 675.785156 1847.683594 672.441406 1821.414062 672.535156 C 1795.128906 672.628906 1773.835938 676.152344 1773.78125 661.476562 C 1773.726562 646.785156 1794.996094 634.808594 1821.265625 634.699219 C 1847.546875 634.605469 1868.894531 646.421875 1868.949219 661.109375 " fill-opacity="1" fill-rule="nonzero"/><path fill="#8a7968" d="M 1625.277344 661.285156 C 1625.277344 675.976562 1603.972656 672.535156 1577.6875 672.535156 C 1551.40625 672.535156 1530.109375 675.976562 1530.109375 661.285156 C 1530.109375 646.609375 1551.40625 634.699219 1577.6875 634.699219 C 1603.972656 634.699219 1625.277344 646.609375 1625.277344 661.285156 " fill-opacity="1" fill-rule="nonzero"/><path fill="#3e393a" d="M 1903.863281 937.355469 C 1914.460938 930.679688 1905.0625 917.90625 1895.246094 924.003906 C 1827.601562 966.035156 1752.691406 1010.234375 1669.765625 998.296875 C 1629.582031 992.511719 1592.304688 974.964844 1559.050781 952.195312 C 1541.101562 939.90625 1524.472656 925.984375 1508.183594 911.59375 C 1507.914062 911.351562 1507.632812 911.09375 1507.359375 910.839844 C 1516.964844 902.328125 1526.808594 894.085938 1536.882812 886.179688 C 1553.996094 872.761719 1574.007812 861.417969 1589.730469 846.445312 C 1592.871094 843.464844 1588.195312 840.332031 1585.199219 841.386719 C 1562.597656 849.410156 1541.574219 865.949219 1522.734375 880.503906 C 1514.035156 887.21875 1505.609375 894.261719 1497.367188 901.53125 C 1487.050781 891.628906 1476.789062 881.40625 1464.976562 873.675781 C 1463.277344 872.570312 1458.191406 873.785156 1459.878906 876.5625 C 1467.226562 888.757812 1477.613281 899.644531 1488.132812 909.933594 C 1481.941406 915.667969 1475.820312 921.496094 1469.886719 927.496094 C 1435.242188 962.472656 1405.519531 1001.710938 1381.164062 1044.46875 C 1377.171875 1051.46875 1390.105469 1053.613281 1393.570312 1047.910156 C 1418.640625 1006.632812 1448.335938 968.191406 1482.5625 934.09375 C 1487.578125 929.101562 1492.703125 924.234375 1497.90625 919.417969 C 1499.203125 920.671875 1500.496094 921.925781 1501.75 923.152344 C 1518.164062 939.257812 1535.84375 954.175781 1554.695312 967.316406 C 1587.855469 990.449219 1626.277344 1007.511719 1666.421875 1013.460938 C 1753.632812 1026.355469 1832.753906 982.152344 1903.863281 937.355469 Z M 1776.898438 857.421875 C 1772.835938 858.328125 1774.523438 863.738281 1778.421875 863.144531 C 1827.089844 855.5625 1875.410156 869.832031 1916.824219 895.300781 C 1957.925781 920.589844 1990.492188 955.6875 2027.890625 985.660156 C 2031.394531 988.464844 2038.625 984.015625 2035.132812 979.832031 C 1974.121094 906.628906 1877.351562 834.953125 1776.898438 857.421875 Z M 2085.863281 891.847656 C 2005.394531 816.742188 1886.464844 794.730469 1782.734375 828.761719 C 1775.589844 831.121094 1780.699219 838.851562 1786.96875 837.042969 C 1886.222656 808.367188 1995.320312 834.777344 2074.628906 899.804688 C 2080.066406 904.269531 2092.253906 897.820312 2085.863281 891.847656 Z M 1263.382812 938.855469 C 1353.128906 866.648438 1463.492188 828.179688 1579.011719 835.921875 C 1586.601562 836.421875 1589.257812 826.25 1580.816406 825.484375 C 1463.925781 814.8125 1341.894531 852.824219 1254.925781 932.394531 C 1249.816406 937.074219 1259.050781 942.335938 1263.382812 938.855469 Z M 1569.894531 1934.648438 C 1568.921875 1934.175781 1567.089844 1934.621094 1566.832031 1935.835938 C 1565.765625 1940.90625 1567.9375 1946.585938 1567.332031 1951.914062 C 1566.738281 1957.324219 1562.761719 1962.691406 1564.257812 1967.925781 C 1564.835938 1969.976562 1568.328125 1970.472656 1569.949219 1969.785156 C 1581.855469 1964.742188 1581.355469 1940.207031 1569.894531 1934.648438 Z M 1860.507812 1925.625 C 1865.441406 1940.070312 1863.515625 1953.234375 1863.042969 1968.03125 C 1862.90625 1972.484375 1870.851562 1972.023438 1872.347656 1968.894531 C 1879.304688 1954.355469 1875.449219 1936.765625 1868.21875 1923.089844 C 1866.277344 1919.417969 1859.011719 1921.214844 1860.507812 1925.625 Z M 1907.828125 1905.417969 C 1904.941406 1902.761719 1897.863281 1905.527344 1901.113281 1909.4375 C 1907.707031 1917.34375 1912.101562 1926.164062 1914.53125 1936.171875 C 1916.390625 1943.835938 1915.703125 1952.398438 1919.128906 1959.546875 C 1920.558594 1962.515625 1925.628906 1962.257812 1927.164062 1959.519531 C 1937.039062 1941.8125 1920.597656 1917.152344 1907.828125 1905.417969 Z M 1810.261719 1838.339844 C 1810.164062 1836.75 1807.105469 1836.53125 1806.875 1838.109375 C 1803.746094 1859.53125 1801.75 1889.773438 1814.332031 1908.589844 C 1816.597656 1911.972656 1824.097656 1911.488281 1823.636719 1906.429688 C 1822.625 1894.980469 1817.3125 1884 1814.886719 1872.683594 C 1812.484375 1861.378906 1810.988281 1849.847656 1810.261719 1838.339844 Z M 1612.128906 1941.191406 C 1619.464844 1954.328125 1619.695312 1967.507812 1618.429688 1982.15625 C 1618.035156 1986.648438 1625.496094 1988.035156 1627.167969 1984.015625 C 1633.585938 1968.679688 1629.835938 1951.765625 1621.015625 1938.089844 C 1618.480469 1934.148438 1609.488281 1936.457031 1612.128906 1941.191406 Z M 1301.652344 1937.480469 C 1296.542969 1936.484375 1292.980469 1943.539062 1298.632812 1945.585938 C 1315.570312 1951.699219 1324.820312 1965.820312 1332.171875 1981.371094 C 1334.800781 1986.957031 1345.441406 1984.042969 1344.78125 1977.867188 C 1342.417969 1956.027344 1321.800781 1941.445312 1301.652344 1937.480469 Z M 1777.746094 791.585938 C 1787.523438 776.707031 1796.503906 762.195312 1812.472656 753.128906 C 1831.539062 742.296875 1851.175781 744.445312 1871.726562 748.316406 C 1875.921875 749.109375 1881.058594 744.402344 1876.257812 741.246094 C 1837.703125 716.023438 1778.542969 747.425781 1769.480469 790.359375 C 1768.453125 795.226562 1775.980469 794.269531 1777.746094 791.585938 Z M 1592.011719 876.023438 C 1588.910156 886.574219 1600.871094 894.367188 1609.621094 897.742188 C 1620.910156 902.097656 1633.179688 901.328125 1644.402344 897.105469 C 1658.34375 891.847656 1669.402344 881.863281 1677.695312 869.710938 C 1685.625 883.269531 1698.007812 894.316406 1712.773438 899.050781 C 1731.207031 904.945312 1757.234375 901.597656 1766.054688 882.160156 C 1767.132812 879.789062 1764.003906 878.074219 1762.050781 879.382812 C 1744.867188 890.902344 1725.261719 891.226562 1708.753906 878.089844 C 1699.488281 870.722656 1693.503906 861.066406 1687.609375 851.273438 C 1688.121094 850.046875 1688.605469 848.816406 1689.078125 847.578125 L 1700.285156 842.15625 C 1726.273438 829.582031 1717.332031 790.507812 1688.457031 790.507812 L 1663.023438 790.507812 C 1634.164062 790.507812 1625.210938 829.582031 1651.199219 842.15625 L 1663.914062 848.304688 C 1665.84375 849.234375 1667.851562 849.925781 1669.902344 850.382812 C 1664.347656 860.726562 1658.074219 870.589844 1648.730469 877.832031 C 1638.292969 885.9375 1626.234375 889.378906 1613.503906 885.277344 C 1606.304688 882.957031 1601.4375 877.441406 1594.316406 875.175781 C 1593.507812 874.917969 1592.304688 875.039062 1592.011719 876.023438 Z M 1557.582031 814.339844 C 1573.050781 814.339844 1585.589844 792.21875 1585.589844 764.917969 C 1585.589844 753.507812 1583.378906 743.039062 1579.710938 734.679688 C 1586.792969 739.007812 1591.847656 745.132812 1597.996094 750.90625 C 1600.453125 753.210938 1607.128906 752.441406 1606.480469 748.003906 C 1602.285156 719.070312 1558.484375 704.882812 1536.4375 721.890625 C 1532.523438 724.898438 1534.292969 728.742188 1537.824219 729.902344 C 1532.742188 738.859375 1529.585938 751.226562 1529.585938 764.917969 C 1529.585938 792.21875 1542.125 814.339844 1557.582031 814.339844 Z M 1272.023438 1846.960938 C 1216.222656 1829.449219 1103.78125 1831.433594 1095.59375 1754.550781 C 1095.257812 1751.40625 1089.984375 1751.960938 1089.78125 1754.96875 C 1085.277344 1822.976562 1171.855469 1839.636719 1221.507812 1851.382812 C 1252.820312 1858.789062 1284.6875 1867.234375 1310.984375 1886.683594 C 1338.726562 1907.1875 1355.878906 1937.496094 1367.71875 1969.328125 C 1370.523438 1976.855469 1383.78125 1974.816406 1382.929688 1966.386719 C 1376.941406 1906.226562 1326.816406 1864.128906 1272.023438 1846.960938 Z M 1731.300781 1829.761719 C 1720.191406 1845.800781 1711.949219 1863.535156 1700.175781 1879.210938 C 1687.742188 1895.761719 1673.015625 1910.019531 1657.238281 1923.304688 C 1656.566406 1886.359375 1652.734375 1849.359375 1651.765625 1812.402344 C 1650.605469 1768.105469 1650.375 1723.769531 1651.078125 1679.457031 C 1651.695312 1641.324219 1651.644531 1602.707031 1654.960938 1564.695312 C 1656.214844 1550.277344 1658.304688 1535.683594 1662.660156 1521.859375 C 1668.378906 1503.742188 1679.261719 1490.96875 1689.46875 1475.457031 C 1690.601562 1473.71875 1687.851562 1472.542969 1686.558594 1473.339844 C 1661.273438 1488.851562 1649.121094 1521.507812 1644.46875 1549.429688 C 1637.957031 1588.449219 1638.65625 1629.265625 1637.808594 1668.722656 C 1636.902344 1710.683594 1636.835938 1752.660156 1637.578125 1794.625 C 1638.375 1840.269531 1637.320312 1887.234375 1642.632812 1932.585938 C 1643.28125 1938.128906 1652.101562 1938.410156 1655.769531 1934.957031 C 1656.417969 1934.878906 1657.023438 1934.703125 1657.535156 1934.390625 C 1692.492188 1913.375 1734.203125 1873.976562 1741.199219 1831.730469 C 1742.171875 1825.957031 1733.6875 1826.335938 1731.300781 1829.761719 Z M 1805.214844 1541.886719 C 1823.234375 1502.394531 1867.9375 1476.359375 1871.039062 1430.257812 C 1871.253906 1427.085938 1865.523438 1427.503906 1864.753906 1430.082031 C 1850.175781 1479.355469 1798.945312 1504.902344 1783.355469 1553.90625 C 1775.0625 1579.953125 1774.902344 1607.578125 1775.789062 1634.636719 C 1776.289062 1649.714844 1777.03125 1664.78125 1777.652344 1679.847656 C 1778.339844 1695.914062 1777.355469 1712.9375 1780.902344 1728.652344 C 1782.585938 1736.191406 1795.777344 1734.449219 1796.667969 1727.234375 C 1800.5625 1695.441406 1794.183594 1660.953125 1793.148438 1628.875 C 1792.203125 1599.59375 1792.835938 1569.027344 1805.214844 1541.886719 Z M 1460.554688 1601.101562 C 1456.183594 1548.605469 1456.628906 1498.132812 1433.246094 1449.679688 C 1420.472656 1423.214844 1405.84375 1398.316406 1397.398438 1369.949219 C 1389.402344 1343.105469 1385.816406 1315.359375 1385.628906 1287.386719 C 1385.601562 1284.945312 1380.828125 1284.835938 1380.515625 1287.15625 C 1373.949219 1338.332031 1385.007812 1386.554688 1407.433594 1432.5625 C 1420.378906 1459.109375 1432.410156 1484.546875 1437.15625 1514.007812 C 1441.621094 1541.808594 1441.78125 1570.121094 1443.925781 1598.148438 C 1452.460938 1709.511719 1478.03125 1823.433594 1523.625 1925.707031 C 1526.820312 1932.882812 1543.042969 1927.851562 1539.996094 1920.203125 C 1498.878906 1816.960938 1469.804688 1712.261719 1460.554688 1601.101562 Z M 965.890625 1910.960938 C 967.96875 1916.15625 959.929688 1918.746094 956.707031 1915.453125 C 924.800781 1882.824219 906.621094 1823.476562 910.289062 1778.585938 C 910.695312 1773.714844 919.054688 1774.1875 920.105469 1778.4375 C 925.8125 1801.421875 929.828125 1824.691406 937.476562 1847.1875 C 945.054688 1869.472656 957.191406 1889.273438 965.890625 1910.960938 " fill-opacity="1" fill-rule="nonzero"/></svg>