<svg xmlns="http://www.w3.org/2000/svg" xmlns:xlink="http://www.w3.org/1999/xlink" width="3076" zoomAndPan="magnify" viewBox="0 0 2307 2306.999892" height="3076" preserveAspectRatio="xMidYMid meet" version="1.0"><defs><clipPath id="875b738126"><path d="M 312.675781 384 L 1761 384 L 1761 1957 L 312.675781 1957 Z M 312.675781 384 " clip-rule="nonzero"/></clipPath><clipPath id="5e0fb78dc9"><path d="M 0.339844 0.582031 L 2306.589844 0.582031 L 2306.589844 2306.832031 L 0.339844 2306.832031 Z M 0.339844 0.582031 " clip-rule="nonzero"/></clipPath></defs><path fill="#c6c5b9" d="M 1634.394531 1838.007812 C 1634.394531 1838.007812 1526.546875 1659.609375 1499.703125 1496.777344 C 1472.859375 1333.949219 1480.960938 1320.921875 1480.960938 1320.921875 C 1480.960938 1320.921875 1474.132812 1317.585938 1471.113281 1257.378906 C 1467.9375 1197.167969 1473.65625 880.40625 1485.089844 836.402344 C 1485.089844 836.402344 1503.039062 654.03125 1508.757812 630.359375 C 1514.476562 606.691406 1527.5 532.664062 1526.707031 507.402344 C 1526.707031 507.402344 1499.066406 469.117188 1488.425781 460.539062 C 1477.785156 451.960938 1459.042969 424.320312 1459.042969 424.320312 C 1459.042969 424.320312 1433.789062 357.601562 1403.609375 418.601562 C 1373.429688 479.605469 1305.925781 578.253906 1284.800781 583.179688 C 1263.675781 588.105469 1105.636719 536 990.003906 763.167969 C 990.003906 763.167969 829.582031 898.355469 818.144531 907.253906 C 806.707031 916.148438 919.957031 925.203125 990.796875 920.277344 C 999.535156 921.867188 1023.996094 918.53125 1061.636719 971.429688 C 1060.367188 986.683594 1036.066406 1234.820312 850.863281 1424.496094 C 850.863281 1424.496094 742.699219 1549.996094 734.597656 1677.878906 C 731.421875 1727.757812 741.585938 1769.222656 755.246094 1801.3125 C 540.660156 1778.277344 552.097656 1564.453125 552.097656 1564.453125 C 521.601562 1586.851562 511.433594 1673.589844 511.433594 1673.589844 C 467.753906 1418.144531 735.867188 1308.371094 735.867188 1308.371094 C 648.351562 1293.4375 354.664062 1402.734375 405.332031 1661.992188 C 456 1921.089844 771.925781 1835.78125 771.925781 1835.78125 L 767.953125 1827.523438 C 786.535156 1860.722656 805.914062 1878.515625 805.914062 1878.515625 C 805.914062 1878.515625 857.695312 1917.117188 944.734375 1931.417969 C 1031.617188 1945.871094 1226.984375 1948.097656 1295.125 1932.847656 C 1295.125 1932.847656 1343.726562 1937.136719 1339.757812 1892.8125 C 1339.757812 1892.8125 1338.167969 1816.242188 1224.601562 1818.625 C 1224.601562 1818.625 1250.808594 1746.503906 1256.367188 1701.386719 L 1314.980469 1616.238281 C 1314.980469 1616.238281 1445.066406 1815.132812 1487.632812 1862.3125 C 1530.199219 1909.492188 1552.117188 1928.554688 1608.503906 1922.835938 C 1608.503906 1922.835938 1675.691406 1931.894531 1686.96875 1897.578125 C 1686.96875 1897.421875 1688.558594 1845.3125 1634.394531 1838.007812 Z M 1079.902344 999.867188 C 1087.527344 1013.050781 1095.628906 1028.460938 1104.046875 1046.414062 C 1104.046875 1046.414062 1091.5 1021.3125 1079.902344 999.867188 Z M 1079.902344 999.867188 " fill-opacity="1" fill-rule="nonzero"/><path fill="#fcf8f5" d="M 1471.273438 1061.027344 C 1471.273438 1061.027344 1471.273438 1060.710938 1471.273438 1060.234375 C 1471.273438 1060.867188 1471.273438 1061.1875 1471.273438 1061.027344 Z M 1293.695312 828.933594 C 1318.316406 811.300781 1328.320312 835.925781 1331.179688 868.015625 C 1333.246094 891.207031 1386.773438 930.285156 1421.558594 956.023438 C 1467.300781 989.699219 1471.113281 1052.765625 1471.273438 1060.390625 C 1471.90625 1044.664062 1482.390625 783.976562 1500.496094 694.699219 C 1519.242188 602.71875 1526.546875 507.402344 1526.546875 507.402344 C 1526.546875 507.402344 1514.316406 477.222656 1477.625 451.960938 L 1458.882812 420.507812 C 1458.566406 420.824219 1458.246094 421.300781 1457.929688 421.621094 C 1458.566406 423.207031 1459.042969 424.320312 1459.042969 424.320312 C 1440.777344 452.597656 1396.9375 442.90625 1392.492188 441.796875 C 1361.675781 505.816406 1292.105469 578.253906 1292.105469 578.253906 C 1292.105469 578.253906 1277.496094 582.386719 1269.234375 584.769531 C 1269.234375 584.769531 1119.453125 570.949219 1117.707031 729.804688 C 1116.277344 888.347656 1264.628906 850.0625 1293.695312 828.933594 Z M 1012.082031 894.226562 C 1000.011719 872.9375 993.023438 810.1875 993.023438 810.1875 C 982.695312 807.964844 877.867188 888.507812 877.867188 888.507812 C 885.96875 894.703125 1012.082031 894.226562 1012.082031 894.226562 Z M 1686.96875 1897.421875 C 1683.792969 1943.332031 1539.890625 1914.578125 1539.890625 1914.578125 C 1539.890625 1914.578125 1440.140625 1811.160156 1397.890625 1739.515625 C 1355.480469 1667.867188 1314.820312 1616.082031 1314.820312 1616.082031 L 1257.640625 1699.003906 L 1314.820312 1616.082031 L 1386.773438 1725.058594 C 1386.773438 1725.058594 1388.519531 1798.132812 1371.84375 1809.09375 C 1355.164062 1820.054688 1435.691406 1795.273438 1450.78125 1852.304688 C 1465.714844 1909.335938 1404.085938 1893.765625 1371.84375 1893.132812 C 1340.074219 1892.496094 1339.597656 1892.496094 1339.597656 1892.496094 C 1339.597656 1892.496094 1349.289062 1932.6875 1294.964844 1932.527344 C 1294.964844 1932.527344 1269.710938 1941.742188 1256.6875 1942.535156 C 1243.664062 1943.332031 1094.199219 1956.039062 988.414062 1940.472656 C 892.320312 1926.492188 834.980469 1905.203125 793.367188 1862.789062 C 800.671875 1872.003906 805.914062 1878.199219 805.914062 1878.199219 C 805.914062 1878.199219 331.316406 1976.847656 321.46875 1553.332031 C 335.605469 1297.726562 572.746094 1254.359375 757.152344 1297.09375 C 757.152344 1297.09375 747.941406 1300.585938 733.007812 1307.578125 C 642.316406 1295.1875 355.140625 1404.957031 405.175781 1661.515625 C 455.84375 1920.613281 771.765625 1835.304688 771.765625 1835.304688 L 768.429688 1828.316406 C 768.589844 1828.316406 768.746094 1828.316406 768.746094 1828.15625 C 772.875 1834.828125 777.484375 1841.660156 781.929688 1847.855469 C 787.011719 1840.546875 815.601562 1808.9375 920.910156 1827.363281 C 1039.082031 1848.015625 1233.972656 1814.972656 1255.734375 1570.804688 C 1250.492188 1545.546875 1241.121094 1520.605469 1225.238281 1500.273438 C 1225.238281 1500.273438 1256.050781 1435.933594 1251.445312 1400.191406 C 1246.839844 1364.449219 1264.152344 1244.667969 1338.964844 1234.34375 C 1404.085938 1225.289062 1448.875 1250.386719 1472.066406 1297.886719 C 1470 1277.234375 1469.367188 1262.300781 1471.113281 1257.058594 C 1471.429688 1271.992188 1473.335938 1289.308594 1476.671875 1308.210938 C 1478.261719 1312.183594 1479.691406 1316.3125 1481.121094 1320.601562 C 1481.121094 1320.601562 1481.121094 1324.574219 1481.277344 1331.40625 C 1519.558594 1511.234375 1655.679688 1807.503906 1692.050781 1823.867188 C 1735.253906 1843.40625 1749.867188 1848.171875 1752.25 1876.769531 C 1754.632812 1906.476562 1686.96875 1897.421875 1686.96875 1897.421875 Z M 1224.601562 1818.46875 C 1224.601562 1818.46875 1270.027344 1815.609375 1304.019531 1836.734375 C 1286.707031 1824.027344 1261.453125 1815.132812 1224.601562 1818.46875 Z M 1512.726562 1544.117188 C 1503.199219 1498.523438 1492.078125 1436.886719 1483.503906 1382.242188 C 1485.410156 1408.132812 1488.742188 1438.476562 1494.621094 1466.117188 C 1498.273438 1483.117188 1504.308594 1510.917969 1512.726562 1544.117188 Z M 1634.394531 1838.007812 C 1634.394531 1837.847656 1571.339844 1720.929688 1537.507812 1632.285156 C 1561.171875 1707.582031 1593.574219 1788.441406 1634.394531 1838.007812 Z M 1670.769531 1857.546875 C 1662.984375 1848.332031 1651.390625 1840.546875 1634.394531 1838.007812 C 1634.554688 1838.007812 1655.363281 1843.089844 1670.769531 1857.546875 Z M 1670.769531 1857.546875 " fill-opacity="1" fill-rule="nonzero"/><g clip-path="url(#875b738126)"><path fill="#c6c5b9" d="M 1760.828125 1876.292969 C 1758.128906 1844.359375 1740.816406 1836.578125 1703.171875 1819.578125 C 1700.789062 1818.46875 1698.246094 1817.355469 1695.546875 1816.085938 C 1693.324219 1815.132812 1680.933594 1807.1875 1647.894531 1745.074219 C 1625.023438 1702.660156 1599.132812 1647.058594 1574.992188 1588.28125 C 1524.480469 1465.960938 1490.96875 1356.664062 1482.074219 1286.449219 C 1464.601562 1032.75 1496.367188 760.464844 1534.171875 521.226562 C 1534.171875 521.066406 1534.171875 521.066406 1534.171875 520.90625 C 1537.347656 494.535156 1517.492188 475.949219 1498.117188 458 C 1485.726562 446.402344 1472.859375 434.328125 1466.984375 420.824219 C 1465.238281 416.21875 1452.53125 385.082031 1431.085938 384.128906 C 1417.902344 383.492188 1406.46875 393.503906 1395.984375 414.628906 C 1381.371094 444.179688 1357.707031 483.257812 1333.878906 516.777344 C 1303.066406 560.304688 1287.023438 573.648438 1282.894531 574.601562 C 1281.148438 574.917969 1274.476562 574.441406 1268.597656 573.964844 C 1243.820312 571.902344 1197.601562 568.246094 1144.707031 590.328125 C 1080.699219 617.015625 1026.375 673.253906 983.171875 757.449219 C 967.765625 770.472656 823.546875 892 812.902344 900.261719 C 809.25 903.121094 807.820312 907.730469 809.410156 911.859375 C 811.316406 916.785156 813.855469 923.457031 879.773438 927.902344 C 918.210938 930.605469 959.507812 930.921875 990.320312 928.855469 C 991.273438 929.015625 992.226562 929.015625 993.179688 929.175781 C 1002.394531 930.128906 1022.566406 932.191406 1052.742188 973.8125 C 1051.632812 987.792969 1045.914062 1041.648438 1023.042969 1113.769531 C 998.582031 1191.292969 948.867188 1305.828125 851.183594 1411.789062 C 798.609375 1468.820312 762.234375 1530.296875 742.855469 1594.636719 C 725.863281 1651.03125 723.003906 1708.378906 734.4375 1760.484375 C 736.820312 1771.285156 739.839844 1781.929688 743.332031 1791.9375 C 689.804688 1787.648438 647.078125 1768.269531 616.265625 1734.429688 C 555.589844 1667.710938 560.515625 1565.882812 560.515625 1564.929688 C 560.675781 1561.273438 558.769531 1557.9375 555.433594 1556.507812 C 552.097656 1555.078125 548.285156 1555.714844 545.742188 1558.257812 C 531.128906 1572.871094 520.964844 1596.542969 514.292969 1618.621094 C 513.023438 1533.15625 548.761719 1457.0625 621.191406 1391.929688 C 686.789062 1332.996094 759.375 1305.511719 760.011719 1305.351562 C 763.664062 1304.082031 765.886719 1300.585938 765.570312 1296.773438 C 765.253906 1292.960938 762.550781 1289.785156 758.898438 1288.832031 C 626.429688 1258.011719 498.726562 1276.121094 417.5625 1337.125 C 353.394531 1385.417969 318.132812 1458.015625 312.890625 1553.015625 C 312.890625 1553.171875 312.890625 1553.492188 312.890625 1553.648438 C 315.59375 1671.523438 354.1875 1760.800781 427.570312 1819.101562 C 503.335938 1879.308594 602.765625 1894.5625 672.8125 1896.625 C 679.480469 1896.785156 686.152344 1896.945312 692.507812 1896.945312 C 753.023438 1896.945312 798.132812 1888.683594 806.390625 1887.09375 C 818.621094 1897.421875 832.121094 1905.679688 846.417969 1911.71875 C 939.335938 1950.480469 1064.019531 1956.832031 1135.65625 1956.832031 C 1138.671875 1956.832031 1141.691406 1956.832031 1144.550781 1956.832031 C 1190.929688 1956.515625 1236.355469 1953.496094 1272.253906 1948.253906 C 1328.796875 1940.152344 1336.421875 1930.621094 1338.804688 1927.445312 C 1344.523438 1920.296875 1347.859375 1911.242188 1348.492188 1901.550781 L 1371.523438 1902.027344 C 1376.449219 1902.1875 1382.167969 1902.503906 1388.203125 1903.140625 C 1396.460938 1903.773438 1404.878906 1904.410156 1413.140625 1904.410156 C 1429.5 1904.410156 1444.90625 1901.710938 1453.960938 1890.75 C 1461.742188 1881.375 1463.332031 1867.871094 1458.722656 1850.238281 C 1447.921875 1809.09375 1407.421875 1804.648438 1385.660156 1804.011719 C 1388.996094 1796.226562 1392.015625 1783.996094 1393.761719 1763.820312 C 1394.078125 1759.371094 1394.394531 1754.921875 1394.554688 1750.792969 C 1460.3125 1846.585938 1516.0625 1919.976562 1549.101562 1924.902344 C 1559.742188 1926.492188 1595.003906 1931.417969 1627.882812 1931.417969 C 1652.027344 1931.417969 1675.058594 1928.714844 1685.699219 1920.136719 C 1691.257812 1915.6875 1692.847656 1910.445312 1693.164062 1906.792969 C 1697.136719 1907.109375 1702.21875 1907.429688 1707.777344 1907.429688 C 1723.34375 1907.429688 1743.039062 1905.203125 1753.042969 1895.671875 C 1758.921875 1890.429688 1761.464844 1883.917969 1760.828125 1876.292969 Z M 1411.390625 422.414062 C 1417.902344 409.070312 1425.050781 401.128906 1430.132812 401.445312 C 1436.644531 401.761719 1444.589844 413.359375 1449.035156 423.050781 C 1437.597656 436.078125 1417.269531 436.394531 1404.878906 434.964844 C 1407.261719 430.675781 1409.484375 426.386719 1411.390625 422.414062 Z M 672.8125 1879.308594 C 605.464844 1877.246094 510.164062 1862.789062 438.210938 1805.601562 C 369.121094 1750.632812 332.746094 1665.960938 330.203125 1553.648438 C 335.128906 1464.210938 368.167969 1396.0625 428.207031 1350.945312 C 500 1297.09375 610.867188 1278.664062 728.722656 1300.269531 C 700.925781 1313.453125 654.386719 1339.03125 610.070312 1378.90625 C 569.886719 1414.964844 540.027344 1455.316406 521.125 1498.683594 C 497.457031 1553.171875 491.261719 1612.585938 502.699219 1675.175781 C 503.492188 1679.308594 506.988281 1682.324219 511.277344 1682.324219 C 511.433594 1682.324219 511.433594 1682.324219 511.59375 1682.324219 C 515.882812 1682.167969 519.375 1678.988281 519.851562 1674.699219 C 519.851562 1674.0625 526.207031 1624.976562 543.835938 1591.140625 C 546.21875 1628.152344 557.339844 1695.351562 603.558594 1746.1875 C 639.136719 1785.265625 688.535156 1806.710938 750.480469 1810.046875 C 760.964844 1834.035156 774.625 1855.164062 790.824219 1872.480469 C 769.542969 1875.496094 725.386719 1880.898438 672.8125 1879.308594 Z M 1367.078125 1801.945312 C 1360.566406 1806.234375 1360.40625 1810.84375 1361.359375 1814.019531 C 1363.421875 1821.167969 1370.414062 1821.167969 1379.148438 1821.167969 C 1407.421875 1821.328125 1434.742188 1825.296875 1442.363281 1854.527344 C 1445.382812 1866.285156 1445.066406 1874.703125 1441.09375 1879.46875 C 1432.992188 1889.160156 1409.007812 1887.253906 1389.789062 1885.664062 C 1383.4375 1885.1875 1377.402344 1884.710938 1372 1884.550781 L 1347.382812 1884.074219 C 1345.15625 1873.433594 1340.550781 1862.628906 1333.246094 1852.621094 C 1318.316406 1831.96875 1294.011719 1817.671875 1265.105469 1812.113281 C 1256.050781 1810.367188 1246.679688 1809.570312 1236.832031 1809.414062 C 1249.378906 1772.398438 1258.433594 1737.449219 1263.992188 1704.882812 C 1264.3125 1704.40625 1264.46875 1703.769531 1264.628906 1703.136719 C 1267.171875 1693.285156 1293.695312 1657.066406 1314.027344 1630.855469 C 1317.203125 1635.9375 1320.539062 1640.863281 1323.875 1645.628906 C 1334.515625 1660.878906 1347.382812 1679.941406 1360.882812 1699.957031 C 1366.757812 1708.535156 1372.476562 1717.117188 1378.195312 1725.535156 C 1378.988281 1762.230469 1373.90625 1797.496094 1367.078125 1801.945312 Z M 1676.488281 1905.363281 C 1676.488281 1905.839844 1675.691406 1906.476562 1675.375 1906.632812 C 1672.039062 1909.335938 1665.527344 1911.242188 1656.632812 1912.351562 C 1653.613281 1901.550781 1646.308594 1880.738281 1631.535156 1870.574219 C 1627.566406 1867.871094 1622.164062 1868.824219 1619.464844 1872.796875 C 1616.765625 1876.769531 1617.71875 1882.167969 1621.6875 1884.871094 C 1630.105469 1890.75 1635.984375 1904.09375 1639 1913.941406 C 1615.972656 1914.734375 1584.996094 1912.828125 1552.277344 1907.90625 C 1542.429688 1906.476562 1521.148438 1892.179688 1475.242188 1832.765625 C 1442.046875 1789.871094 1406.625 1737.289062 1375.335938 1690.746094 C 1361.835938 1670.570312 1348.96875 1651.507812 1338.167969 1636.097656 C 1280.828125 1554.125 1236.199219 1411.789062 1235.722656 1410.359375 C 1234.292969 1405.75 1229.527344 1403.210938 1224.921875 1404.640625 C 1220.3125 1406.070312 1217.773438 1410.835938 1219.203125 1415.441406 C 1220.789062 1420.683594 1255.734375 1531.410156 1304.496094 1615.285156 C 1296.714844 1625.136719 1281.941406 1644.199219 1269.394531 1662.148438 C 1272.730469 1618.78125 1268.917969 1580.179688 1257.800781 1546.660156 C 1239.054688 1489.789062 1198.871094 1447.847656 1141.851562 1425.609375 C 1102.300781 1410.199219 1054.171875 1404.640625 1010.015625 1410.359375 C 977.613281 1414.648438 939.972656 1426.5625 930.917969 1447.371094 C 929.011719 1451.820312 931.078125 1456.902344 935.523438 1458.652344 C 939.972656 1460.558594 945.054688 1458.492188 946.800781 1454.042969 C 950.929688 1444.511719 974.597656 1432.28125 1012.082031 1427.355469 C 1053.539062 1421.953125 1098.488281 1427.199219 1135.335938 1441.652344 C 1204.90625 1468.816406 1307.671875 1552.855469 1218.089844 1810.046875 C 1194.742188 1812.113281 1169.488281 1818.148438 1142.328125 1828.476562 C 1137.878906 1830.222656 1135.65625 1835.148438 1137.242188 1839.59375 C 1138.992188 1844.042969 1143.914062 1846.265625 1148.363281 1844.679688 C 1178.0625 1833.398438 1203.160156 1828.15625 1224.125 1826.886719 C 1224.125 1826.886719 1224.285156 1826.886719 1224.285156 1826.886719 C 1224.761719 1826.886719 1225.238281 1826.886719 1225.554688 1826.726562 C 1284.324219 1823.550781 1310.851562 1851.507812 1318.949219 1862.789062 C 1325.621094 1871.84375 1329.59375 1882.167969 1330.703125 1891.859375 C 1330.703125 1892.019531 1330.703125 1892.175781 1330.703125 1892.335938 C 1330.703125 1893.128906 1330.863281 1893.925781 1331.023438 1894.71875 C 1331.5 1903.140625 1329.59375 1910.921875 1325.144531 1916.484375 C 1323.714844 1918.070312 1317.839844 1920.929688 1304.8125 1924.265625 C 1305.925781 1910.605469 1304.179688 1886.300781 1283.210938 1866.601562 C 1279.71875 1863.265625 1274.316406 1863.425781 1270.980469 1866.917969 C 1267.648438 1870.414062 1267.804688 1875.816406 1271.300781 1879.152344 C 1290.675781 1897.261719 1288.136719 1920.929688 1286.867188 1928.078125 C 1281.304688 1929.03125 1275.269531 1930.144531 1268.28125 1931.097656 C 1233.019531 1936.183594 1188.386719 1939.042969 1142.960938 1939.359375 C 1074.820312 1939.835938 946.484375 1934.59375 852.769531 1895.515625 C 803.691406 1875.019531 765.730469 1823.074219 751.277344 1756.671875 C 727.609375 1648.171875 768.589844 1526.644531 863.890625 1423.386719 C 963.636719 1315.203125 1014.464844 1198.121094 1039.402344 1118.851562 C 1056.398438 1065.15625 1064.019531 1021.789062 1067.515625 996.214844 C 1076.25 1010.667969 1085.78125 1028.460938 1095.945312 1049.90625 C 1096.898438 1052.132812 1098.804688 1053.71875 1101.027344 1054.515625 C 1103.253906 1055.308594 1105.792969 1054.992188 1107.859375 1053.878906 C 1108.496094 1053.5625 1149.316406 1031.003906 1180.128906 1015.433594 C 1171.550781 1027.667969 1164.246094 1037.359375 1162.023438 1039.421875 C 1158.6875 1041.964844 1157.574219 1046.414062 1159.480469 1050.066406 C 1160.910156 1053.085938 1164.085938 1054.992188 1167.261719 1054.992188 C 1168.058594 1054.992188 1168.851562 1054.832031 1169.644531 1054.671875 C 1173.777344 1053.5625 1271.777344 1025.285156 1321.332031 989.859375 C 1325.144531 987 1326.097656 981.597656 1323.398438 977.785156 C 1320.539062 973.972656 1315.136719 973.019531 1311.328125 975.71875 C 1279.558594 998.597656 1224.125 1018.769531 1191.40625 1029.730469 C 1198.871094 1019.40625 1206.8125 1007.808594 1212.691406 999.074219 C 1214.753906 995.894531 1214.597656 991.765625 1212.371094 988.90625 C 1209.988281 985.886719 1206.019531 984.773438 1202.523438 986.203125 C 1184.101562 993.035156 1128.507812 1023.058594 1107.542969 1034.496094 C 1094.835938 1008.285156 1082.128906 986.203125 1069.738281 968.414062 C 1069.261719 966.347656 1067.992188 964.757812 1066.246094 963.488281 C 1056.875 950.78125 1047.660156 940.292969 1038.605469 932.351562 C 1017.957031 914.242188 1002.871094 912.8125 994.609375 911.859375 C 993.5 911.699219 992.546875 911.699219 991.910156 911.542969 C 991.273438 911.382812 990.480469 911.382812 989.84375 911.382812 C 933.140625 915.355469 860.871094 910.429688 833.394531 905.34375 C 870.402344 874.6875 989.527344 774.285156 995.246094 769.363281 C 996.199219 768.566406 996.832031 767.773438 997.308594 766.660156 C 1094.199219 577.300781 1219.835938 587.46875 1267.171875 591.28125 C 1276.382812 592.074219 1282.417969 592.550781 1286.707031 591.441406 C 1298.9375 588.582031 1319.585938 566.816406 1347.859375 526.785156 C 1365.011719 502.636719 1382.167969 475.632812 1395.984375 451.167969 C 1400.433594 451.960938 1407.101562 452.757812 1414.566406 452.757812 C 1428.226562 452.757812 1444.746094 449.898438 1457.292969 439.09375 C 1465.078125 450.851562 1475.878906 460.859375 1486.363281 470.707031 C 1503.832031 487.070312 1518.921875 501.050781 1517.015625 518.84375 C 1487.316406 706.929688 1454.117188 953.796875 1460.152344 1194.785156 C 1460.628906 1215.4375 1461.425781 1235.773438 1462.535156 1255.789062 C 1462.378906 1256.265625 1462.378906 1256.902344 1462.378906 1257.535156 C 1462.535156 1265.003906 1463.171875 1273.105469 1464.125 1281.683594 C 1470.320312 1374.933594 1482.867188 1461.351562 1501.609375 1539.511719 C 1529.40625 1655.796875 1571.65625 1757.78125 1627.246094 1842.773438 C 1628.519531 1844.835938 1630.742188 1846.265625 1633.125 1846.585938 C 1664.734375 1851.511719 1678.867188 1870.730469 1676.488281 1905.363281 Z M 1741.765625 1883.121094 C 1734.460938 1890.113281 1710.953125 1891.066406 1693.640625 1889.476562 C 1690.78125 1857.230469 1672.039062 1836.417969 1639.636719 1830.0625 C 1564.191406 1713.621094 1520.035156 1574.777344 1497.320312 1425.292969 C 1513.203125 1476.761719 1534.011719 1534.269531 1559.109375 1594.792969 C 1583.570312 1654.046875 1609.617188 1710.285156 1632.648438 1753.335938 C 1670.292969 1823.710938 1683.953125 1829.90625 1688.398438 1831.96875 C 1691.097656 1833.242188 1693.640625 1834.351562 1696.023438 1835.464844 C 1734.460938 1852.78125 1741.765625 1856.753906 1743.515625 1877.878906 C 1743.832031 1880.105469 1743.195312 1881.691406 1741.765625 1883.121094 Z M 1268.28125 637.667969 C 1270.980469 641.640625 1269.871094 647.042969 1266.058594 649.742188 C 1239.851562 667.535156 1201.253906 698.828125 1197.917969 712.332031 C 1196.964844 716.304688 1193.46875 718.84375 1189.5 718.84375 C 1188.863281 718.84375 1188.070312 718.6875 1187.433594 718.527344 C 1182.828125 717.414062 1179.96875 712.648438 1181.082031 708.042969 C 1187.277344 683.261719 1244.773438 643.226562 1256.210938 635.445312 C 1260.339844 632.585938 1265.582031 633.695312 1268.28125 637.667969 Z M 1001.597656 809.078125 C 1001.121094 805.105469 998.261719 802.085938 994.449219 801.453125 C 993.816406 801.292969 993.179688 801.292969 992.546875 801.292969 C 988.574219 801.292969 981.746094 801.292969 925.359375 842.121094 C 898.515625 861.5 872.941406 881.199219 872.625 881.515625 C 870.558594 883.105469 869.289062 885.648438 869.289062 888.347656 C 869.289062 891.046875 870.558594 893.589844 872.625 895.179688 C 875.800781 897.71875 882.3125 902.804688 1004.140625 902.804688 C 1009.222656 902.804688 1012.242188 902.804688 1012.242188 902.804688 C 1015.257812 902.804688 1018.117188 901.214844 1019.707031 898.515625 C 1021.292969 895.8125 1021.292969 892.636719 1019.707031 889.9375 C 1010.335938 873.734375 1003.503906 826.074219 1001.597656 809.078125 Z M 899.148438 883.105469 C 934.09375 856.734375 969.671875 831.316406 985.875 822.105469 C 987.9375 837.832031 992.386719 865.949219 999.058594 885.488281 C 950.773438 885.488281 917.574219 884.375 899.148438 883.105469 Z M 899.148438 883.105469 " fill-opacity="1" fill-rule="nonzero"/></g><g clip-path="url(#5e0fb78dc9)"><path fill="#c6c5b9" d="M 1153.464844 2306.832031 C 516.398438 2306.832031 0.339844 1787.214844 0.339844 1153.707031 C 0.339844 520.199219 516.398438 0.582031 1153.464844 0.582031 C 1790.53125 0.582031 2306.589844 516.640625 2306.589844 1153.707031 C 2306.589844 1790.773438 1786.972656 2306.832031 1153.464844 2306.832031 Z M 1153.464844 71.761719 C 555.546875 71.761719 71.519531 555.789062 71.519531 1153.707031 C 71.519531 1751.621094 555.546875 2235.652344 1153.464844 2235.652344 C 1751.382812 2235.652344 2235.410156 1751.621094 2235.410156 1153.707031 C 2235.410156 555.789062 1747.824219 71.761719 1153.464844 71.761719 Z M 1153.464844 71.761719 " fill-opacity="1" fill-rule="nonzero"/></g></svg>