<svg xmlns="http://www.w3.org/2000/svg" xmlns:xlink="http://www.w3.org/1999/xlink" width="387" zoomAndPan="magnify" viewBox="0 0 290.25 290.249983" height="387" preserveAspectRatio="xMidYMid meet" version="1.0"><defs><clipPath id="da9673908e"><path d="M 0.34375 0 L 289.203125 0 L 289.203125 288.859375 L 0.34375 288.859375 Z M 0.34375 0 " clip-rule="nonzero"/></clipPath><clipPath id="a0b23d82aa"><path d="M 144.773438 0 C 65.007812 0 0.34375 64.664062 0.34375 144.429688 C 0.34375 224.195312 65.007812 288.859375 144.773438 288.859375 C 224.539062 288.859375 289.203125 224.195312 289.203125 144.429688 C 289.203125 64.664062 224.539062 0 144.773438 0 " clip-rule="nonzero"/></clipPath><clipPath id="bf66aaae79"><path d="M 50.664062 45 L 248 45 L 248 233.804688 L 50.664062 233.804688 Z M 50.664062 45 " clip-rule="nonzero"/></clipPath></defs><g clip-path="url(#da9673908e)"><g clip-path="url(#a0b23d82aa)"><path fill="#00bfb3" d="M 0.34375 0 L 289.203125 0 L 289.203125 288.859375 L 0.34375 288.859375 Z M 0.34375 0 " fill-opacity="1" fill-rule="nonzero"/></g></g><g clip-path="url(#bf66aaae79)"><path fill="#fdfdff" d="M 247.199219 157.789062 C 247.199219 152.871094 245.238281 148.289062 241.875 144.898438 C 245.699219 140.714844 247.640625 135.101562 247.105469 129.273438 C 246.15625 118.871094 236.773438 110.71875 225.757812 110.71875 L 175.183594 110.71875 C 177.671875 103.113281 181.6875 89.175781 181.6875 77.976562 C 181.6875 60.222656 166.59375 45.238281 157.121094 45.238281 C 148.609375 45.238281 142.527344 50.019531 142.273438 50.222656 C 141.296875 51.007812 140.742188 52.179688 140.742188 53.421875 L 140.742188 81.171875 L 117.15625 132.253906 L 116.175781 132.746094 L 116.175781 131.179688 C 116.175781 128.921875 114.339844 127.089844 112.082031 127.089844 L 71.136719 127.089844 C 59.851562 127.089844 50.664062 136.273438 50.664062 147.550781 L 50.664062 213.03125 C 50.664062 224.3125 59.851562 233.496094 71.136719 233.496094 L 95.703125 233.496094 C 104.5625 233.496094 112.121094 227.847656 114.980469 219.972656 C 121.792969 223.476562 130.964844 225.316406 136.65625 225.316406 L 211.820312 225.316406 C 220.738281 225.316406 228.535156 219.300781 230.367188 211.019531 C 231.3125 206.753906 230.761719 202.457031 228.894531 198.722656 C 234.9375 195.679688 239.007812 189.449219 239.007812 182.347656 C 239.007812 179.449219 238.34375 176.671875 237.085938 174.160156 C 243.128906 171.117188 247.199219 164.886719 247.199219 157.789062 Z M 95.703125 225.308594 L 71.136719 225.308594 C 64.355469 225.308594 58.851562 219.800781 58.851562 213.03125 L 58.851562 147.550781 C 58.851562 140.78125 64.363281 135.273438 71.136719 135.273438 L 71.136719 135.3125 L 107.96875 135.3125 L 107.96875 139.40625 C 107.96875 139.429688 107.984375 139.449219 107.984375 139.472656 L 107.984375 213.03125 C 107.984375 219.800781 102.464844 225.308594 95.703125 225.308594 Z M 229.917969 167.898438 C 228.339844 168.078125 227.003906 169.152344 226.503906 170.664062 C 226.003906 172.171875 226.414062 173.839844 227.578125 174.929688 C 229.664062 176.902344 230.8125 179.539062 230.8125 182.355469 C 230.8125 187.511719 226.914062 191.855469 221.738281 192.445312 C 220.15625 192.625 218.824219 193.699219 218.324219 195.210938 C 217.824219 196.71875 218.234375 198.386719 219.394531 199.476562 C 222.097656 202.023438 223.179688 205.589844 222.367188 209.25 C 221.359375 213.808594 216.921875 217.125 211.8125 217.125 L 136.648438 217.125 C 130.5625 217.125 120.769531 214.496094 116.175781 211.082031 L 116.175781 141.917969 L 122.078125 138.972656 C 122.90625 138.554688 123.570312 137.867188 123.960938 137.023438 L 148.527344 83.820312 C 148.773438 83.289062 148.90625 82.699219 148.90625 82.113281 L 148.90625 55.691406 C 150.609375 54.75 153.566406 53.464844 157.09375 53.464844 C 161.582031 53.464844 173.472656 64.621094 173.472656 78.019531 C 173.472656 92.417969 165.636719 113.191406 165.554688 113.394531 C 165.078125 114.648438 165.242188 116.0625 166.011719 117.167969 C 166.78125 118.273438 168.035156 118.9375 169.386719 118.9375 L 225.734375 118.9375 C 232.5625 118.9375 238.363281 123.8125 238.933594 130.050781 C 239.367188 134.71875 237.140625 139.152344 233.113281 141.632812 C 231.851562 142.402344 231.113281 143.800781 231.171875 145.277344 C 231.222656 146.75 232.074219 148.074219 233.390625 148.753906 C 236.847656 150.523438 238.992188 153.992188 238.992188 157.808594 C 238.984375 162.964844 235.085938 167.308594 229.917969 167.898438 Z M 229.917969 167.898438 " fill-opacity="1" fill-rule="nonzero"/></g></svg>