<svg xmlns="http://www.w3.org/2000/svg" xmlns:xlink="http://www.w3.org/1999/xlink" width="1091" zoomAndPan="magnify" viewBox="0 0 818.25 818.249997" height="1091" preserveAspectRatio="xMidYMid meet" version="1.0"><defs><clipPath id="09fa21030e"><path d="M 0.230469 0.429688 L 817.300781 0.429688 L 817.300781 817.5 L 0.230469 817.5 Z M 0.230469 0.429688 " clip-rule="nonzero"/></clipPath><clipPath id="c9b09c8602"><path d="M 408.765625 0.429688 C 183.136719 0.429688 0.230469 183.335938 0.230469 408.964844 C 0.230469 634.59375 183.136719 817.5 408.765625 817.5 C 634.394531 817.5 817.300781 634.59375 817.300781 408.964844 C 817.300781 183.335938 634.394531 0.429688 408.765625 0.429688 " clip-rule="nonzero"/></clipPath><clipPath id="04b7afcb72"><path d="M 142.5625 128 L 699 128 L 699 661 L 142.5625 661 Z M 142.5625 128 " clip-rule="nonzero"/></clipPath></defs><g clip-path="url(#09fa21030e)"><g clip-path="url(#c9b09c8602)"><path fill="#62929e" d="M 0.230469 0.429688 L 817.300781 0.429688 L 817.300781 817.5 L 0.230469 817.5 Z M 0.230469 0.429688 " fill-opacity="1" fill-rule="nonzero"/></g></g><g clip-path="url(#04b7afcb72)"><path fill="#fdfdff" d="M 698.484375 446.757812 C 698.484375 432.84375 692.949219 419.878906 683.429688 410.292969 C 694.246094 398.460938 699.738281 382.578125 698.230469 366.09375 C 695.542969 336.667969 669 313.609375 637.84375 313.609375 L 494.785156 313.609375 C 501.828125 292.101562 513.179688 252.671875 513.179688 221 C 513.179688 170.78125 470.488281 128.386719 443.6875 128.386719 C 419.621094 128.386719 402.410156 141.910156 401.691406 142.488281 C 398.9375 144.710938 397.359375 148.023438 397.359375 151.539062 L 397.359375 230.027344 L 330.652344 374.523438 L 327.871094 375.910156 L 327.871094 371.488281 C 327.871094 365.101562 322.683594 359.914062 316.289062 359.914062 L 200.472656 359.914062 C 168.554688 359.914062 142.5625 385.890625 142.5625 417.792969 L 142.5625 603.015625 C 142.5625 634.917969 168.554688 660.894531 200.472656 660.894531 L 269.960938 660.894531 C 295.023438 660.894531 316.40625 644.921875 324.488281 622.648438 C 343.761719 632.558594 369.703125 637.765625 385.800781 637.765625 L 598.417969 637.765625 C 623.644531 637.765625 645.695312 620.75 650.882812 597.320312 C 653.546875 585.257812 651.996094 573.101562 646.714844 562.542969 C 663.808594 553.929688 675.320312 536.3125 675.320312 516.214844 C 675.320312 508.019531 673.445312 500.171875 669.878906 493.0625 C 686.972656 484.449219 698.484375 466.832031 698.484375 446.757812 Z M 269.960938 637.742188 L 200.472656 637.742188 C 181.292969 637.742188 165.726562 622.160156 165.726562 603.015625 L 165.726562 417.792969 C 165.726562 398.648438 181.316406 383.066406 200.472656 383.066406 L 200.472656 383.183594 L 304.660156 383.183594 L 304.660156 394.757812 C 304.660156 394.828125 304.707031 394.875 304.707031 394.941406 L 304.707031 603.015625 C 304.707031 622.160156 289.09375 637.742188 269.960938 637.742188 Z M 649.609375 475.351562 C 645.140625 475.859375 641.363281 478.894531 639.953125 483.175781 C 638.539062 487.4375 639.695312 492.160156 642.984375 495.238281 C 648.894531 500.820312 652.136719 508.273438 652.136719 516.238281 C 652.136719 530.824219 641.109375 543.121094 626.46875 544.785156 C 622 545.296875 618.222656 548.328125 616.8125 552.613281 C 615.398438 556.871094 616.554688 561.59375 619.847656 564.675781 C 627.488281 571.875 630.546875 581.96875 628.253906 592.320312 C 625.40625 605.214844 612.851562 614.589844 598.394531 614.589844 L 385.78125 614.589844 C 368.570312 614.589844 340.867188 607.160156 327.871094 597.503906 L 327.871094 401.867188 L 344.570312 393.53125 C 346.910156 392.351562 348.789062 390.40625 349.898438 388.019531 L 419.390625 237.53125 C 420.085938 236.023438 420.453125 234.359375 420.453125 232.691406 L 420.453125 157.953125 C 425.273438 155.292969 433.636719 151.65625 443.617188 151.65625 C 456.3125 151.65625 489.945312 183.214844 489.945312 221.113281 C 489.945312 261.839844 467.777344 320.601562 467.546875 321.179688 C 466.203125 324.722656 466.667969 328.726562 468.84375 331.851562 C 471.019531 334.976562 474.566406 336.855469 478.386719 336.855469 L 637.773438 336.855469 C 657.09375 336.855469 673.492188 350.652344 675.113281 368.292969 C 676.339844 381.492188 670.039062 394.039062 658.644531 401.054688 C 655.078125 403.230469 652.992188 407.191406 653.15625 411.359375 C 653.292969 415.527344 655.703125 419.277344 659.433594 421.199219 C 669.207031 426.199219 675.277344 436.015625 675.277344 446.804688 C 675.253906 461.390625 664.226562 473.683594 649.609375 475.351562 Z M 649.609375 475.351562 " fill-opacity="1" fill-rule="nonzero"/></g></svg>