<svg xmlns="http://www.w3.org/2000/svg" xmlns:xlink="http://www.w3.org/1999/xlink" width="3328" zoomAndPan="magnify" viewBox="0 0 2496 2495.249965" height="3327" preserveAspectRatio="xMidYMid meet" version="1.0"><defs><clipPath id="9bd9b9486c"><path d="M 1.0625 0.105469 L 2495.5625 0.105469 L 2495.5625 2494.5 L 1.0625 2494.5 Z M 1.0625 0.105469 " clip-rule="nonzero"/></clipPath><clipPath id="b54fd4408e"><path d="M 515.570312 599 L 1940 599 L 1940 1984 L 515.570312 1984 Z M 515.570312 599 " clip-rule="nonzero"/></clipPath><clipPath id="e589ea8ab1"><path d="M 1451 965 L 1980.628906 965 L 1980.628906 1211 L 1451 1211 Z M 1451 965 " clip-rule="nonzero"/></clipPath></defs><g clip-path="url(#9bd9b9486c)"><path fill="#c6c5b9" d="M 1248.3125 2494.605469 C 559.246094 2494.605469 1.0625 1932.574219 1.0625 1247.355469 C 1.0625 562.136719 559.246094 0.105469 1248.3125 0.105469 C 1937.378906 0.105469 2495.5625 558.289062 2495.5625 1247.355469 C 2495.5625 1936.421875 1933.53125 2494.605469 1248.3125 2494.605469 Z M 1248.3125 77.09375 C 601.589844 77.09375 78.050781 600.632812 78.050781 1247.355469 C 78.050781 1894.078125 601.589844 2417.613281 1248.3125 2417.613281 C 1895.035156 2417.613281 2418.570312 1894.078125 2418.570312 1247.355469 C 2418.570312 600.632812 1891.183594 77.09375 1248.3125 77.09375 Z M 1248.3125 77.09375 " fill-opacity="1" fill-rule="nonzero"/></g><path fill="#dbdad7" d="M 1126.011719 1128.832031 C 1126.011719 1210.238281 1126.011719 1373.054688 1207.40625 1495.164062 C 1207.40625 1495.164062 1223.683594 1340.492188 1410.886719 1250.945312 Z M 1126.011719 1128.832031 " fill-opacity="1" fill-rule="nonzero"/><g clip-path="url(#b54fd4408e)"><path fill="#a6a6a6" d="M 515.570312 721.800781 C 515.570312 681.097656 719.050781 599.691406 1044.621094 599.691406 C 1378.328125 599.691406 1939.933594 843.910156 1939.933594 1413.757812 C 1939.933594 1657.976562 1817.847656 1983.601562 1410.886719 1983.601562 L 1410.886719 1820.789062 C 1492.277344 1820.789062 1573.667969 1780.085938 1573.667969 1657.976562 C 1573.667969 1291.648438 1467.859375 1047.425781 1370.1875 966.019531 C 1203.335938 827.628906 588.824219 856.121094 531.847656 762.503906 C 519.640625 746.222656 515.570312 734.011719 515.570312 721.800781 Z M 515.570312 721.800781 " fill-opacity="1" fill-rule="nonzero"/></g><path fill="#dbdad7" d="M 1777.148438 1576.570312 C 1777.148438 1735.3125 1724.246094 1861.492188 1642.851562 1938.828125 C 1577.738281 1967.320312 1500.417969 1983.601562 1410.886719 1983.601562 C 1476 1983.601562 1594.019531 1877.773438 1594.019531 1751.59375 C 1594.019531 1723.101562 1585.878906 1690.539062 1573.667969 1657.976562 C 1573.667969 1291.648438 1126.011719 1169.535156 1126.011719 1169.535156 C 1126.011719 1169.535156 841.140625 1128.832031 800.445312 1006.722656 C 800.445312 1006.722656 588.824219 856.121094 531.847656 762.503906 C 519.640625 746.222656 556.265625 721.800781 800.445312 721.800781 C 1288.796875 721.800781 1777.148438 1128.832031 1777.148438 1576.570312 Z M 1777.148438 1576.570312 " fill-opacity="1" fill-rule="nonzero"/><path fill="#a6a6a6" d="M 1410.886719 1983.601562 C 1410.886719 1983.601562 1248.101562 2227.820312 1003.925781 2227.820312 C 1003.925781 2227.820312 1166.707031 2097.570312 1166.707031 1983.601562 C 1166.707031 1902.195312 881.835938 1739.382812 841.140625 1657.976562 C 1166.707031 1657.976562 1288.796875 1820.789062 1410.886719 1820.789062 Z M 1410.886719 1983.601562 " fill-opacity="1" fill-rule="nonzero"/><path fill="#a6a6a6" d="M 1370.1875 685.167969 C 1370.1875 685.167969 1532.972656 567.128906 1858.542969 607.832031 C 1858.542969 607.832031 1695.757812 701.449219 1695.757812 884.613281 Z M 1370.1875 685.167969 " fill-opacity="1" fill-rule="nonzero"/><g clip-path="url(#e589ea8ab1)"><path fill="#dbdad7" d="M 1451.582031 986.371094 C 1451.582031 986.371094 1720.175781 884.613281 1980.628906 1128.832031 C 1980.628906 1128.832031 1789.359375 1112.550781 1622.503906 1210.238281 Z M 1451.582031 986.371094 " fill-opacity="1" fill-rule="nonzero"/></g><path fill="#fdfdff" d="M 1207.40625 1006.722656 C 1121.941406 961.949219 1052.757812 925.316406 922.53125 925.316406 C 800.445312 925.316406 800.445312 1006.722656 800.445312 1006.722656 C 800.445312 1006.722656 743.46875 966.019531 682.425781 917.175781 C 682.425781 880.542969 727.191406 843.910156 841.140625 843.910156 C 1036.480469 843.910156 1199.265625 998.582031 1207.40625 1006.722656 Z M 1207.40625 1006.722656 " fill-opacity="1" fill-rule="nonzero"/><path fill="#fdfdff" d="M 991.714844 652.605469 C 967.296875 652.605469 951.019531 668.886719 951.019531 693.308594 C 951.019531 717.730469 967.296875 734.011719 991.714844 734.011719 C 1016.132812 734.011719 1032.410156 717.730469 1032.410156 693.308594 C 1032.410156 668.886719 1016.132812 652.605469 991.714844 652.605469 Z M 991.714844 652.605469 " fill-opacity="1" fill-rule="nonzero"/></svg>