<svg xmlns="http://www.w3.org/2000/svg" xmlns:xlink="http://www.w3.org/1999/xlink" width="1091" zoomAndPan="magnify" viewBox="0 0 818.25 818.999997" height="1092" preserveAspectRatio="xMidYMid meet" version="1.0"><defs><clipPath id="ea8e019003"><path d="M 0.0664062 1.082031 L 817.140625 1.082031 L 817.140625 818.15625 L 0.0664062 818.15625 Z M 0.0664062 1.082031 " clip-rule="nonzero"/></clipPath><clipPath id="0c4ea53199"><path d="M 408.605469 1.082031 C 182.976562 1.082031 0.0664062 183.992188 0.0664062 409.621094 C 0.0664062 635.25 182.976562 818.15625 408.605469 818.15625 C 634.234375 818.15625 817.140625 635.25 817.140625 409.621094 C 817.140625 183.992188 634.234375 1.082031 408.605469 1.082031 " clip-rule="nonzero"/></clipPath></defs><g clip-path="url(#ea8e019003)"><g clip-path="url(#0c4ea53199)"><path fill="#62929e" d="M 0.0664062 1.082031 L 817.140625 1.082031 L 817.140625 818.15625 L 0.0664062 818.15625 Z M 0.0664062 1.082031 " fill-opacity="1" fill-rule="nonzero"/></g></g><path fill="#fdfdff" d="M 196.429688 420.007812 C 183.226562 406.808594 161.808594 406.808594 148.605469 420.007812 C 135.402344 433.210938 135.402344 454.617188 148.605469 467.820312 L 283.820312 602.996094 C 297.023438 616.152344 318.4375 616.152344 331.644531 602.996094 L 669.675781 265.054688 C 682.878906 251.851562 682.878906 230.441406 669.675781 217.242188 C 656.472656 204.039062 635.054688 204.039062 621.851562 217.242188 L 307.730469 531.328125 L 196.429688 420.007812 " fill-opacity="1" fill-rule="nonzero"/></svg>