<svg xmlns="http://www.w3.org/2000/svg" xmlns:xlink="http://www.w3.org/1999/xlink" width="387" zoomAndPan="magnify" viewBox="0 0 290.25 290.249983" height="387" preserveAspectRatio="xMidYMid meet" version="1.0"><defs><clipPath id="784b3a183c"><path d="M 0 0 L 288.859375 0 L 288.859375 288.859375 L 0 288.859375 Z M 0 0 " clip-rule="nonzero"/></clipPath><clipPath id="ce5b6a04b2"><path d="M 144.429688 0 C 64.664062 0 0 64.664062 0 144.429688 C 0 224.195312 64.664062 288.859375 144.429688 288.859375 C 224.195312 288.859375 288.859375 224.195312 288.859375 144.429688 C 288.859375 64.664062 224.195312 0 144.429688 0 " clip-rule="nonzero"/></clipPath></defs><g clip-path="url(#784b3a183c)"><g clip-path="url(#ce5b6a04b2)"><path fill="#00bfb3" d="M 0 0 L 288.859375 0 L 288.859375 288.859375 L 0 288.859375 Z M 0 0 " fill-opacity="1" fill-rule="nonzero"/></g></g><path fill="#fdfdff" d="M 69.417969 148.101562 C 64.75 143.433594 57.179688 143.433594 52.511719 148.101562 C 47.84375 152.769531 47.84375 160.335938 52.511719 165.003906 L 100.3125 212.792969 C 104.980469 217.445312 112.554688 217.445312 117.222656 212.792969 L 236.726562 93.320312 C 241.394531 88.652344 241.394531 81.085938 236.726562 76.417969 C 232.058594 71.75 224.488281 71.75 219.816406 76.417969 L 108.769531 187.457031 L 69.417969 148.101562 " fill-opacity="1" fill-rule="nonzero"/></svg>