<svg xmlns="http://www.w3.org/2000/svg" xmlns:xlink="http://www.w3.org/1999/xlink" width="387" zoomAndPan="magnify" viewBox="0 0 290.25 290.249983" height="387" preserveAspectRatio="xMidYMid meet" version="1.0"><defs><clipPath id="7eb072742a"><path d="M 0.238281 0 L 289.097656 0 L 289.097656 288.859375 L 0.238281 288.859375 Z M 0.238281 0 " clip-rule="nonzero"/></clipPath><clipPath id="c6d588e2ff"><path d="M 144.667969 0 C 64.902344 0 0.238281 64.664062 0.238281 144.429688 C 0.238281 224.195312 64.902344 288.859375 144.667969 288.859375 C 224.433594 288.859375 289.097656 224.195312 289.097656 144.429688 C 289.097656 64.664062 224.433594 0 144.667969 0 " clip-rule="nonzero"/></clipPath><clipPath id="cd47c1d19c"><path d="M 46.015625 59.359375 L 243 59.359375 L 243 248 L 46.015625 248 Z M 46.015625 59.359375 " clip-rule="nonzero"/></clipPath></defs><g clip-path="url(#7eb072742a)"><g clip-path="url(#c6d588e2ff)"><path fill="#ff9e00" d="M 0.238281 0 L 289.097656 0 L 289.097656 288.859375 L 0.238281 288.859375 Z M 0.238281 0 " fill-opacity="1" fill-rule="nonzero"/></g></g><g clip-path="url(#cd47c1d19c)"><path fill="#fdfdff" d="M 242.550781 135.382812 C 242.550781 128.285156 238.480469 122.054688 232.4375 119.011719 C 233.699219 116.5 234.359375 113.714844 234.359375 110.828125 C 234.359375 103.722656 230.289062 97.492188 224.238281 94.449219 C 226.097656 90.722656 226.65625 86.417969 225.714844 82.15625 C 223.886719 73.863281 216.082031 67.855469 207.164062 67.855469 L 132 67.855469 C 126.316406 67.855469 117.136719 69.6875 110.324219 73.199219 C 107.472656 65.316406 99.914062 59.671875 91.054688 59.671875 L 66.488281 59.671875 C 55.203125 59.671875 46.015625 68.855469 46.015625 80.132812 L 46.015625 145.613281 C 46.015625 156.890625 55.203125 166.074219 66.488281 166.074219 L 107.433594 166.074219 C 109.691406 166.074219 111.527344 164.242188 111.527344 161.984375 L 111.527344 160.421875 L 112.507812 160.910156 L 136.09375 211.996094 L 136.09375 239.742188 C 136.09375 240.984375 136.660156 242.15625 137.625 242.941406 C 137.886719 243.148438 143.964844 247.925781 152.472656 247.925781 C 161.945312 247.925781 177.039062 232.941406 177.039062 215.1875 C 177.039062 203.988281 173.027344 190.050781 170.527344 182.445312 L 221.101562 182.445312 C 232.125 182.445312 241.5 174.300781 242.460938 163.898438 C 243 158.070312 241.050781 152.457031 237.226562 148.273438 C 240.59375 144.882812 242.550781 140.300781 242.550781 135.382812 Z M 103.339844 157.921875 L 66.488281 157.921875 C 59.714844 157.921875 54.203125 152.414062 54.203125 145.644531 L 54.203125 80.164062 C 54.203125 73.394531 59.714844 67.886719 66.488281 67.886719 L 91.054688 67.886719 C 97.828125 67.886719 103.339844 73.394531 103.339844 80.164062 L 103.339844 153.796875 C 103.339844 153.804688 103.339844 153.804688 103.339844 153.816406 C 103.339844 153.824219 103.339844 153.824219 103.339844 153.832031 Z M 228.480469 151.5625 C 232.503906 154.042969 234.738281 158.480469 234.304688 163.152344 C 233.730469 169.382812 227.933594 174.261719 221.101562 174.261719 L 164.753906 174.261719 C 163.402344 174.261719 162.160156 174.933594 161.390625 176.039062 C 160.621094 177.140625 160.449219 178.558594 160.929688 179.808594 C 161.003906 180.015625 168.847656 200.789062 168.847656 215.1875 C 168.847656 228.585938 156.960938 239.742188 152.472656 239.742188 C 148.941406 239.742188 145.976562 238.457031 144.28125 237.515625 L 144.273438 237.515625 L 144.273438 211.125 C 144.273438 210.539062 144.144531 209.949219 143.898438 209.414062 L 119.332031 156.214844 C 118.945312 155.371094 118.28125 154.683594 117.449219 154.265625 L 111.527344 151.300781 L 111.527344 82.105469 C 116.113281 78.691406 125.914062 76.074219 132 76.074219 L 207.183594 76.074219 C 212.292969 76.074219 216.730469 79.378906 217.738281 83.945312 C 218.546875 87.605469 217.46875 91.167969 214.765625 93.71875 C 213.601562 94.808594 213.183594 96.46875 213.691406 97.984375 C 214.191406 99.492188 215.527344 100.570312 217.105469 100.75 C 222.273438 101.339844 226.179688 105.679688 226.179688 110.84375 C 226.179688 113.660156 225.035156 116.292969 222.945312 118.265625 C 221.78125 119.355469 221.363281 121.015625 221.871094 122.53125 C 222.371094 124.039062 223.707031 125.117188 225.289062 125.296875 C 230.453125 125.886719 234.359375 130.226562 234.359375 135.390625 C 234.359375 139.195312 232.214844 142.667969 228.757812 144.441406 C 227.449219 145.113281 226.597656 146.449219 226.539062 147.921875 C 226.476562 149.394531 227.21875 150.785156 228.480469 151.5625 Z M 228.480469 151.5625 " fill-opacity="1" fill-rule="nonzero"/></g></svg>