<svg xmlns="http://www.w3.org/2000/svg" xmlns:xlink="http://www.w3.org/1999/xlink" width="1091" zoomAndPan="magnify" viewBox="0 0 818.25 818.249997" height="1091" preserveAspectRatio="xMidYMid meet" version="1.0"><defs><clipPath id="dde838fa2d"><path d="M 0 0.429688 L 817.074219 0.429688 L 817.074219 817.5 L 0 817.5 Z M 0 0.429688 " clip-rule="nonzero"/></clipPath><clipPath id="9620c20b88"><path d="M 408.535156 0.429688 C 182.90625 0.429688 0 183.335938 0 408.964844 C 0 634.59375 182.90625 817.5 408.535156 817.5 C 634.164062 817.5 817.074219 634.59375 817.074219 408.964844 C 817.074219 183.335938 634.164062 0.429688 408.535156 0.429688 " clip-rule="nonzero"/></clipPath><clipPath id="9f095ab1d0"><path d="M 129.484375 169 L 686 169 L 686 702 L 129.484375 702 Z M 129.484375 169 " clip-rule="nonzero"/></clipPath></defs><g clip-path="url(#dde838fa2d)"><g clip-path="url(#9620c20b88)"><path fill="#62929e" d="M 0 0.429688 L 817.074219 0.429688 L 817.074219 817.5 L 0 817.5 Z M 0 0.429688 " fill-opacity="1" fill-rule="nonzero"/></g></g><g clip-path="url(#9f095ab1d0)"><path fill="#fdfdff" d="M 685.40625 383.371094 C 685.40625 363.300781 673.894531 345.679688 656.800781 337.066406 C 660.367188 329.960938 662.242188 322.089844 662.242188 313.914062 C 662.242188 293.820312 650.730469 276.199219 633.613281 267.585938 C 638.871094 257.050781 640.445312 244.875 637.78125 232.8125 C 632.617188 209.359375 610.542969 192.363281 585.316406 192.363281 L 372.699219 192.363281 C 356.625 192.363281 330.660156 197.550781 311.386719 207.484375 C 303.324219 185.1875 281.945312 169.210938 256.882812 169.210938 L 187.394531 169.210938 C 155.472656 169.210938 129.484375 195.1875 129.484375 227.09375 L 129.484375 412.3125 C 129.484375 444.21875 155.472656 470.195312 187.394531 470.195312 L 303.210938 470.195312 C 309.601562 470.195312 314.792969 465.007812 314.792969 458.617188 L 314.792969 454.195312 L 317.570312 455.585938 L 384.28125 600.082031 L 384.28125 678.566406 C 384.28125 682.085938 385.878906 685.398438 388.613281 687.621094 C 389.355469 688.199219 406.542969 701.71875 430.609375 701.71875 C 457.410156 701.71875 500.097656 659.328125 500.097656 609.109375 C 500.097656 577.4375 488.75 538.007812 481.683594 516.5 L 624.742188 516.5 C 655.917969 516.5 682.441406 493.464844 685.152344 464.035156 C 686.679688 447.550781 681.167969 431.667969 670.351562 419.839844 C 679.871094 410.253906 685.40625 397.289062 685.40625 383.371094 Z M 291.628906 447.136719 L 187.394531 447.136719 C 168.238281 447.136719 152.648438 431.554688 152.648438 412.40625 L 152.648438 227.1875 C 152.648438 208.039062 168.238281 192.457031 187.394531 192.457031 L 256.882812 192.457031 C 276.039062 192.457031 291.628906 208.039062 291.628906 227.1875 L 291.628906 435.464844 C 291.628906 435.488281 291.628906 435.488281 291.628906 435.511719 C 291.628906 435.535156 291.628906 435.535156 291.628906 435.558594 Z M 645.613281 429.144531 C 656.984375 436.160156 663.308594 448.710938 662.082031 461.929688 C 660.460938 479.546875 644.058594 493.347656 624.742188 493.347656 L 465.355469 493.347656 C 461.53125 493.347656 458.011719 495.246094 455.832031 498.371094 C 453.65625 501.496094 453.167969 505.503906 454.535156 509.042969 C 454.746094 509.625 476.933594 568.382812 476.933594 609.109375 C 476.933594 647.011719 443.300781 678.566406 430.609375 678.566406 C 420.625 678.566406 412.238281 674.933594 407.445312 672.269531 L 407.421875 672.269531 L 407.421875 597.625 C 407.421875 595.960938 407.050781 594.292969 406.355469 592.789062 L 336.867188 442.296875 C 335.777344 439.910156 333.902344 437.964844 331.539062 436.785156 L 314.792969 428.40625 L 314.792969 232.671875 C 327.761719 223.019531 355.488281 215.609375 372.699219 215.609375 L 585.363281 215.609375 C 599.816406 215.609375 612.371094 224.964844 615.222656 237.882812 C 617.515625 248.230469 614.457031 258.304688 606.8125 265.527344 C 603.523438 268.605469 602.34375 273.304688 603.777344 277.589844 C 605.191406 281.847656 608.96875 284.90625 613.4375 285.414062 C 628.054688 287.082031 639.101562 299.351562 639.101562 313.960938 C 639.101562 321.925781 635.859375 329.382812 629.953125 334.960938 C 626.664062 338.039062 625.480469 342.738281 626.917969 347.023438 C 628.332031 351.285156 632.105469 354.339844 636.578125 354.847656 C 651.195312 356.515625 662.242188 368.785156 662.242188 383.394531 C 662.242188 394.160156 656.175781 403.980469 646.398438 409.003906 C 642.691406 410.902344 640.285156 414.675781 640.121094 418.84375 C 639.9375 423.011719 642.042969 426.945312 645.613281 429.144531 Z M 645.613281 429.144531 " fill-opacity="1" fill-rule="nonzero"/></g></svg>