<svg xmlns="http://www.w3.org/2000/svg" xmlns:xlink="http://www.w3.org/1999/xlink" width="387" zoomAndPan="magnify" viewBox="0 0 290.25 290.249983" height="387" preserveAspectRatio="xMidYMid meet" version="1.0"><defs><clipPath id="68854af333"><path d="M 0.238281 0 L 289.097656 0 L 289.097656 288.859375 L 0.238281 288.859375 Z M 0.238281 0 " clip-rule="nonzero"/></clipPath><clipPath id="3295110f4b"><path d="M 144.667969 0 C 64.902344 0 0.238281 64.664062 0.238281 144.429688 C 0.238281 224.195312 64.902344 288.859375 144.667969 288.859375 C 224.433594 288.859375 289.097656 224.195312 289.097656 144.429688 C 289.097656 64.664062 224.433594 0 144.667969 0 Z M 144.667969 0 " clip-rule="nonzero"/></clipPath><clipPath id="776ead18bd"><path d="M 46.015625 59.359375 L 243 59.359375 L 243 248 L 46.015625 248 Z M 46.015625 59.359375 " clip-rule="nonzero"/></clipPath></defs><g clip-path="url(#68854af333)"><g clip-path="url(#3295110f4b)"><path fill="#ff9e00" d="M 0.238281 0 L 289.097656 0 L 289.097656 288.859375 L 0.238281 288.859375 Z M 0.238281 0 " fill-opacity="1" fill-rule="nonzero"/></g></g><g clip-path="url(#776ead18bd)"><path fill="#fdfdff" d="M 242.5 135.398438 C 242.5 128.300781 238.429688 122.070312 232.390625 119.023438 C 233.648438 116.511719 234.3125 113.726562 234.3125 110.839844 C 234.3125 103.730469 230.246094 97.5 224.195312 94.457031 C 226.054688 90.730469 226.609375 86.425781 225.667969 82.160156 C 223.84375 73.867188 216.039062 67.855469 207.125 67.855469 L 131.976562 67.855469 C 126.296875 67.855469 117.117188 69.691406 110.308594 73.203125 C 107.457031 65.320312 99.902344 59.671875 91.042969 59.671875 L 66.484375 59.671875 C 55.203125 59.671875 46.015625 68.855469 46.015625 80.136719 L 46.015625 145.632812 C 46.015625 156.914062 55.203125 166.097656 66.484375 166.097656 L 107.417969 166.097656 C 109.675781 166.097656 111.511719 164.265625 111.511719 162.007812 L 111.511719 160.441406 L 112.492188 160.933594 L 136.070312 212.027344 L 136.070312 239.78125 C 136.070312 241.027344 136.636719 242.195312 137.601562 242.980469 C 137.863281 243.1875 143.9375 247.96875 152.445312 247.96875 C 161.917969 247.96875 177.003906 232.976562 177.003906 215.21875 C 177.003906 204.019531 172.992188 190.078125 170.496094 182.472656 L 221.058594 182.472656 C 232.078125 182.472656 241.453125 174.328125 242.410156 163.921875 C 242.949219 158.09375 241.003906 152.476562 237.179688 148.292969 C 240.542969 144.902344 242.5 140.320312 242.5 135.398438 Z M 103.324219 157.945312 L 66.484375 157.945312 C 59.710938 157.945312 54.203125 152.433594 54.203125 145.664062 L 54.203125 80.171875 C 54.203125 73.398438 59.710938 67.890625 66.484375 67.890625 L 91.042969 67.890625 C 97.8125 67.890625 103.324219 73.398438 103.324219 80.171875 L 103.324219 153.820312 C 103.324219 153.828125 103.324219 153.828125 103.324219 153.835938 C 103.324219 153.84375 103.324219 153.84375 103.324219 153.851562 Z M 228.433594 151.585938 C 232.453125 154.066406 234.691406 158.5 234.257812 163.175781 C 233.683594 169.40625 227.886719 174.285156 221.058594 174.285156 L 164.726562 174.285156 C 163.375 174.285156 162.128906 174.957031 161.359375 176.0625 C 160.589844 177.167969 160.417969 178.585938 160.902344 179.835938 C 160.976562 180.042969 168.820312 200.820312 168.820312 215.21875 C 168.820312 228.621094 156.929688 239.78125 152.445312 239.78125 C 148.917969 239.78125 145.953125 238.496094 144.257812 237.554688 L 144.25 237.554688 L 144.25 211.160156 C 144.25 210.570312 144.117188 209.980469 143.875 209.449219 L 119.3125 156.234375 C 118.929688 155.390625 118.265625 154.703125 117.429688 154.285156 L 111.511719 151.320312 L 111.511719 82.109375 C 116.09375 78.695312 125.894531 76.078125 131.976562 76.078125 L 207.140625 76.078125 C 212.25 76.078125 216.6875 79.382812 217.695312 83.953125 C 218.503906 87.613281 217.425781 91.171875 214.722656 93.726562 C 213.558594 94.816406 213.140625 96.476562 213.648438 97.992188 C 214.148438 99.5 215.484375 100.578125 217.0625 100.761719 C 222.230469 101.347656 226.136719 105.6875 226.136719 110.855469 C 226.136719 113.671875 224.988281 116.308594 222.902344 118.28125 C 221.738281 119.367188 221.320312 121.03125 221.828125 122.546875 C 222.328125 124.050781 223.664062 125.132812 225.242188 125.3125 C 230.410156 125.902344 234.3125 130.242188 234.3125 135.40625 C 234.3125 139.214844 232.167969 142.683594 228.714844 144.460938 C 227.402344 145.132812 226.550781 146.46875 226.496094 147.941406 C 226.429688 149.414062 227.175781 150.804688 228.433594 151.585938 Z M 228.433594 151.585938 " fill-opacity="1" fill-rule="nonzero"/></g></svg>